%TF.GenerationSoftware,KiCad,Pcbnew,(6.0.7)*%
%TF.CreationDate,2022-11-28T19:40:44-08:00*%
%TF.ProjectId,as01808ao-enclosure,61733031-3830-4386-916f-2d656e636c6f,rev?*%
%TF.SameCoordinates,Original*%
%TF.FileFunction,Profile,NP*%
%FSLAX46Y46*%
G04 Gerber Fmt 4.6, Leading zero omitted, Abs format (unit mm)*
G04 Created by KiCad (PCBNEW (6.0.7)) date 2022-11-28 19:40:44*
%MOMM*%
%LPD*%
G01*
G04 APERTURE LIST*
%TA.AperFunction,Profile*%
%ADD10C,0.200000*%
%TD*%
%TA.AperFunction,Profile*%
%ADD11C,0.100000*%
%TD*%
G04 APERTURE END LIST*
D10*
X158393000Y-84836000D02*
X158393000Y-97936000D01*
D11*
X178056892Y-82296219D02*
G75*
G03*
X175028534Y-79029634I-3028391J229510D01*
G01*
D10*
X175652800Y-100397600D02*
G75*
G03*
X175652800Y-100397600I-850000J0D01*
G01*
X158393000Y-97936000D02*
G75*
G03*
X159893000Y-99436000I1500000J0D01*
G01*
D11*
X175006000Y-108712000D02*
G75*
G03*
X178054000Y-105664000I0J3048000D01*
G01*
D10*
X154652800Y-100397600D02*
G75*
G03*
X154652800Y-100397600I-850000J0D01*
G01*
D11*
X178054000Y-105664000D02*
X178054000Y-82296000D01*
D10*
X167850669Y-99436000D02*
X159893000Y-99436000D01*
X170293000Y-85778330D02*
X167850669Y-83336000D01*
D11*
X153741401Y-79029634D02*
G75*
G03*
X150693401Y-82077634I0J-3048000D01*
G01*
X150693401Y-82077634D02*
X150618261Y-105664000D01*
X153741401Y-79029634D02*
X175028534Y-79029634D01*
D10*
X167850669Y-99436000D02*
X170293000Y-96993669D01*
X167850669Y-83336000D02*
X159893000Y-83336000D01*
D11*
X153666261Y-108712000D02*
X175006000Y-108712000D01*
X150618300Y-105664000D02*
G75*
G03*
X153666261Y-108712000I3048000J0D01*
G01*
D10*
X154652800Y-82397600D02*
G75*
G03*
X154652800Y-82397600I-850000J0D01*
G01*
X170293000Y-96993669D02*
X170293000Y-85778330D01*
X159893000Y-83336000D02*
G75*
G03*
X158393000Y-84836000I0J-1500000D01*
G01*
X175652800Y-82397600D02*
G75*
G03*
X175652800Y-82397600I-850000J0D01*
G01*
M02*
