%TF.GenerationSoftware,KiCad,Pcbnew,(6.0.7)*%
%TF.CreationDate,2022-11-28T19:40:44-08:00*%
%TF.ProjectId,as01808ao-enclosure,61733031-3830-4386-916f-2d656e636c6f,rev?*%
%TF.SameCoordinates,Original*%
%TF.FileFunction,Legend,Top*%
%TF.FilePolarity,Positive*%
%FSLAX46Y46*%
G04 Gerber Fmt 4.6, Leading zero omitted, Abs format (unit mm)*
G04 Created by KiCad (PCBNEW (6.0.7)) date 2022-11-28 19:40:44*
%MOMM*%
%LPD*%
G01*
G04 APERTURE LIST*
%ADD10C,0.150000*%
%ADD11C,0.200000*%
%ADD12C,0.120000*%
G04 APERTURE END LIST*
D10*
%TO.C,U1*%
X163576095Y-103592380D02*
X163576095Y-104401904D01*
X163623714Y-104497142D01*
X163671333Y-104544761D01*
X163766571Y-104592380D01*
X163957047Y-104592380D01*
X164052285Y-104544761D01*
X164099904Y-104497142D01*
X164147523Y-104401904D01*
X164147523Y-103592380D01*
X165147523Y-104592380D02*
X164576095Y-104592380D01*
X164861809Y-104592380D02*
X164861809Y-103592380D01*
X164766571Y-103735238D01*
X164671333Y-103830476D01*
X164576095Y-103878095D01*
%TO.C,J1*%
X165992666Y-105624380D02*
X165992666Y-106338666D01*
X165945047Y-106481523D01*
X165849809Y-106576761D01*
X165706952Y-106624380D01*
X165611714Y-106624380D01*
X166992666Y-106624380D02*
X166421238Y-106624380D01*
X166706952Y-106624380D02*
X166706952Y-105624380D01*
X166611714Y-105767238D01*
X166516476Y-105862476D01*
X166421238Y-105910095D01*
D11*
%TO.C,U1*%
X156194000Y-79840000D02*
X172394000Y-79840000D01*
X174051980Y-94157682D02*
X175580646Y-93601293D01*
X175580646Y-89278707D02*
X174051980Y-88722318D01*
X169094000Y-82140000D02*
X171094000Y-82140000D01*
X155194000Y-80840000D02*
X155194000Y-87782625D01*
X157494000Y-100740000D02*
X157494000Y-97740000D01*
X159494000Y-100740000D02*
X157494000Y-100740000D01*
X173394000Y-95097375D02*
X173394000Y-98097375D01*
X171094000Y-100740000D02*
X169094000Y-100740000D01*
X157494000Y-82140000D02*
X159494000Y-82140000D01*
X155194000Y-95097375D02*
X155194000Y-102040000D01*
X173394000Y-87782625D02*
X173394000Y-84782625D01*
X153007354Y-93601293D02*
X154536020Y-94157682D01*
X157494000Y-82140000D02*
X157494000Y-85140000D01*
X172394000Y-103040000D02*
X156194000Y-103040000D01*
X154536020Y-88722318D02*
X153007354Y-89278707D01*
X175580646Y-93601293D02*
G75*
G03*
X175580646Y-89278707I-786646J2161293D01*
G01*
X153007354Y-89278707D02*
G75*
G03*
X153007354Y-93601293I786646J-2161293D01*
G01*
X155193999Y-95097375D02*
G75*
G03*
X154536020Y-94157682I-999999J1D01*
G01*
X156194000Y-79840000D02*
G75*
G03*
X155194000Y-80840000I-1J-999999D01*
G01*
X154536020Y-88722319D02*
G75*
G03*
X155194000Y-87782625I-342020J939693D01*
G01*
X174051979Y-94157679D02*
G75*
G03*
X173394000Y-95097375I342091J-939741D01*
G01*
X172394000Y-103040000D02*
G75*
G03*
X173394000Y-102040000I0J1000000D01*
G01*
X155194000Y-102040000D02*
G75*
G03*
X156194000Y-103040000I999999J-1D01*
G01*
X173394000Y-80840000D02*
G75*
G03*
X172394000Y-79840000I-1000000J0D01*
G01*
X173393948Y-87782625D02*
G75*
G03*
X174051980Y-88722318I1000152J125D01*
G01*
D12*
%TO.C,J1*%
X167326000Y-107502000D02*
X167326000Y-106172000D01*
X172526000Y-107502000D02*
X172526000Y-104842000D01*
X169926000Y-107502000D02*
X172526000Y-107502000D01*
X169926000Y-104842000D02*
X172526000Y-104842000D01*
X168656000Y-107502000D02*
X167326000Y-107502000D01*
X169926000Y-107502000D02*
X169926000Y-104842000D01*
%TD*%
M02*
