%TF.GenerationSoftware,KiCad,Pcbnew,(6.0.7)*%
%TF.CreationDate,2022-11-28T20:00:56-08:00*%
%TF.ProjectId,max98357-amp,6d617839-3833-4353-972d-616d702e6b69,rev?*%
%TF.SameCoordinates,Original*%
%TF.FileFunction,Copper,L1,Top*%
%TF.FilePolarity,Positive*%
%FSLAX46Y46*%
G04 Gerber Fmt 4.6, Leading zero omitted, Abs format (unit mm)*
G04 Created by KiCad (PCBNEW (6.0.7)) date 2022-11-28 20:00:56*
%MOMM*%
%LPD*%
G01*
G04 APERTURE LIST*
G04 Aperture macros list*
%AMRoundRect*
0 Rectangle with rounded corners*
0 $1 Rounding radius*
0 $2 $3 $4 $5 $6 $7 $8 $9 X,Y pos of 4 corners*
0 Add a 4 corners polygon primitive as box body*
4,1,4,$2,$3,$4,$5,$6,$7,$8,$9,$2,$3,0*
0 Add four circle primitives for the rounded corners*
1,1,$1+$1,$2,$3*
1,1,$1+$1,$4,$5*
1,1,$1+$1,$6,$7*
1,1,$1+$1,$8,$9*
0 Add four rect primitives between the rounded corners*
20,1,$1+$1,$2,$3,$4,$5,0*
20,1,$1+$1,$4,$5,$6,$7,0*
20,1,$1+$1,$6,$7,$8,$9,0*
20,1,$1+$1,$8,$9,$2,$3,0*%
G04 Aperture macros list end*
%TA.AperFunction,ComponentPad*%
%ADD10R,1.700000X1.700000*%
%TD*%
%TA.AperFunction,ComponentPad*%
%ADD11O,1.700000X1.700000*%
%TD*%
%TA.AperFunction,SMDPad,CuDef*%
%ADD12RoundRect,0.225000X-0.225000X-0.250000X0.225000X-0.250000X0.225000X0.250000X-0.225000X0.250000X0*%
%TD*%
%TA.AperFunction,SMDPad,CuDef*%
%ADD13RoundRect,0.200000X0.275000X-0.200000X0.275000X0.200000X-0.275000X0.200000X-0.275000X-0.200000X0*%
%TD*%
%TA.AperFunction,SMDPad,CuDef*%
%ADD14RoundRect,0.225000X0.250000X-0.225000X0.250000X0.225000X-0.250000X0.225000X-0.250000X-0.225000X0*%
%TD*%
%TA.AperFunction,ComponentPad*%
%ADD15R,2.400000X2.400000*%
%TD*%
%TA.AperFunction,ComponentPad*%
%ADD16C,2.400000*%
%TD*%
%TA.AperFunction,SMDPad,CuDef*%
%ADD17RoundRect,0.400000X-2.100000X-0.400000X2.100000X-0.400000X2.100000X0.400000X-2.100000X0.400000X0*%
%TD*%
%TA.AperFunction,SMDPad,CuDef*%
%ADD18RoundRect,0.320000X-2.180000X-0.480000X2.180000X-0.480000X2.180000X0.480000X-2.180000X0.480000X0*%
%TD*%
%TA.AperFunction,SMDPad,CuDef*%
%ADD19RoundRect,0.075000X0.075000X-0.325000X0.075000X0.325000X-0.075000X0.325000X-0.075000X-0.325000X0*%
%TD*%
%TA.AperFunction,SMDPad,CuDef*%
%ADD20RoundRect,0.075000X0.325000X-0.075000X0.325000X0.075000X-0.325000X0.075000X-0.325000X-0.075000X0*%
%TD*%
%TA.AperFunction,SMDPad,CuDef*%
%ADD21R,1.230000X1.230000*%
%TD*%
%TA.AperFunction,SMDPad,CuDef*%
%ADD22RoundRect,0.200000X0.200000X0.275000X-0.200000X0.275000X-0.200000X-0.275000X0.200000X-0.275000X0*%
%TD*%
%TA.AperFunction,SMDPad,CuDef*%
%ADD23RoundRect,0.225000X-0.250000X0.225000X-0.250000X-0.225000X0.250000X-0.225000X0.250000X0.225000X0*%
%TD*%
%TA.AperFunction,SMDPad,CuDef*%
%ADD24RoundRect,0.200000X-0.200000X-0.275000X0.200000X-0.275000X0.200000X0.275000X-0.200000X0.275000X0*%
%TD*%
%TA.AperFunction,ViaPad*%
%ADD25C,0.800000*%
%TD*%
%TA.AperFunction,Conductor*%
%ADD26C,0.250000*%
%TD*%
G04 APERTURE END LIST*
D10*
%TO.P,J1,1,Pin_1*%
%TO.N,+3.3V*%
X146304000Y-119126000D03*
D11*
%TO.P,J1,2,Pin_2*%
%TO.N,GND*%
X143764000Y-119126000D03*
%TO.P,J1,3,Pin_3*%
%TO.N,/SD_MODE*%
X141224000Y-119126000D03*
%TO.P,J1,4,Pin_4*%
%TO.N,/GAIN*%
X138684000Y-119126000D03*
%TO.P,J1,5,Pin_5*%
%TO.N,/DIN*%
X136144000Y-119126000D03*
%TO.P,J1,6,Pin_6*%
%TO.N,/BCLK*%
X133604000Y-119126000D03*
%TO.P,J1,7,Pin_7*%
%TO.N,/LRCLK*%
X131064000Y-119126000D03*
%TD*%
D12*
%TO.P,C4,1*%
%TO.N,Net-(C4-Pad1)*%
X137414000Y-109601000D03*
%TO.P,C4,2*%
%TO.N,GND*%
X138964000Y-109601000D03*
%TD*%
D10*
%TO.P,J6,1,Pin_1*%
%TO.N,Net-(C4-Pad1)*%
X141478000Y-103632000D03*
%TD*%
D13*
%TO.P,R2,1*%
%TO.N,+3.3V*%
X141478000Y-111252000D03*
%TO.P,R2,2*%
%TO.N,Net-(J4-Pad1)*%
X141478000Y-109602000D03*
%TD*%
D14*
%TO.P,C1,1*%
%TO.N,+3.3V*%
X139065000Y-114935000D03*
%TO.P,C1,2*%
%TO.N,GND*%
X139065000Y-113385000D03*
%TD*%
D10*
%TO.P,J3,1,Pin_1*%
%TO.N,Net-(J3-Pad1)*%
X146304000Y-111506000D03*
D11*
%TO.P,J3,2,Pin_2*%
%TO.N,/SD_MODE*%
X148844000Y-111506000D03*
%TD*%
D15*
%TO.P,J7,1,Pin_1*%
%TO.N,Net-(C4-Pad1)*%
X133858000Y-100330000D03*
D16*
%TO.P,J7,2,Pin_2*%
%TO.N,Net-(C3-Pad1)*%
X133858000Y-103830000D03*
%TD*%
D13*
%TO.P,R1,1*%
%TO.N,+3.3V*%
X141478000Y-116078000D03*
%TO.P,R1,2*%
%TO.N,Net-(J3-Pad1)*%
X141478000Y-114428000D03*
%TD*%
D17*
%TO.P,S1,1,+*%
%TO.N,Net-(J8-Pad1)*%
X146674000Y-76632000D03*
D18*
%TO.P,S1,2,-*%
%TO.N,Net-(C3-Pad1)*%
X146674000Y-93232000D03*
%TD*%
D19*
%TO.P,U1,1,DIN*%
%TO.N,/DIN*%
X132811000Y-115595000D03*
%TO.P,U1,2,GAIN*%
%TO.N,/GAIN*%
X133311000Y-115595000D03*
%TO.P,U1,3,GND*%
%TO.N,GND*%
X133811000Y-115595000D03*
%TO.P,U1,4,~{SD_MODE}*%
%TO.N,/SD_MODE*%
X134341000Y-115595000D03*
D20*
%TO.P,U1,5*%
%TO.N,N/C*%
X135001000Y-114935000D03*
%TO.P,U1,6*%
X135001000Y-114435000D03*
%TO.P,U1,7,VDD*%
%TO.N,+3.3V*%
X135001000Y-113935000D03*
%TO.P,U1,8*%
X135001000Y-113405000D03*
D19*
%TO.P,U1,9,OUTP*%
%TO.N,Net-(FB1-Pad1)*%
X134341000Y-112745000D03*
%TO.P,U1,10,OUTN*%
%TO.N,Net-(FB2-Pad1)*%
X133811000Y-112745000D03*
%TO.P,U1,11*%
%TO.N,GND*%
X133311000Y-112745000D03*
%TO.P,U1,12*%
%TO.N,N/C*%
X132811000Y-112745000D03*
D20*
%TO.P,U1,13*%
X132151000Y-113405000D03*
%TO.P,U1,14,LRCLK*%
%TO.N,/LRCLK*%
X132151000Y-113935000D03*
%TO.P,U1,15*%
%TO.N,GND*%
X132151000Y-114435000D03*
%TO.P,U1,16,BCLK*%
%TO.N,/BCLK*%
X132151000Y-114935000D03*
D21*
%TO.P,U1,17*%
%TO.N,GND*%
X133576000Y-114170000D03*
%TD*%
D10*
%TO.P,J5,1,Pin_1*%
%TO.N,Net-(C3-Pad1)*%
X141478000Y-99822000D03*
%TD*%
D14*
%TO.P,C2,1*%
%TO.N,+3.3V*%
X137033000Y-114961000D03*
%TO.P,C2,2*%
%TO.N,GND*%
X137033000Y-113411000D03*
%TD*%
D22*
%TO.P,FB2,1*%
%TO.N,Net-(FB2-Pad1)*%
X131699000Y-109601000D03*
%TO.P,FB2,2*%
%TO.N,Net-(C3-Pad1)*%
X130049000Y-109601000D03*
%TD*%
D10*
%TO.P,J2,1,Pin_1*%
%TO.N,+3.3V*%
X146304000Y-115316000D03*
D11*
%TO.P,J2,2,Pin_2*%
%TO.N,/SD_MODE*%
X148844000Y-115316000D03*
%TD*%
D23*
%TO.P,C3,1*%
%TO.N,Net-(C3-Pad1)*%
X130175000Y-111252000D03*
%TO.P,C3,2*%
%TO.N,GND*%
X130175000Y-112802000D03*
%TD*%
D24*
%TO.P,FB1,1*%
%TO.N,Net-(FB1-Pad1)*%
X133731000Y-109601000D03*
%TO.P,FB1,2*%
%TO.N,Net-(C4-Pad1)*%
X135381000Y-109601000D03*
%TD*%
D10*
%TO.P,J8,1,Pin_1*%
%TO.N,Net-(J8-Pad1)*%
X147574000Y-101087000D03*
D11*
%TO.P,J8,2,Pin_2*%
%TO.N,Net-(C4-Pad1)*%
X147574000Y-103627000D03*
%TD*%
D10*
%TO.P,J4,1,Pin_1*%
%TO.N,Net-(J4-Pad1)*%
X146304000Y-107696000D03*
D11*
%TO.P,J4,2,Pin_2*%
%TO.N,/SD_MODE*%
X148844000Y-107696000D03*
%TD*%
D25*
%TO.N,GND*%
X129921000Y-115570000D03*
X133311000Y-113905000D03*
X139065000Y-111506000D03*
X136906000Y-111506000D03*
%TD*%
D26*
%TO.N,+3.3V*%
X135001000Y-113405000D02*
X135001000Y-113935000D01*
X140208000Y-116078000D02*
X141478000Y-116078000D01*
X146304000Y-115316000D02*
X146304000Y-119126000D01*
X143383000Y-116078000D02*
X144145000Y-115316000D01*
X139065000Y-114935000D02*
X140208000Y-116078000D01*
X141478000Y-116078000D02*
X143383000Y-116078000D01*
X137033000Y-114961000D02*
X139039000Y-114961000D01*
X136551000Y-114961000D02*
X137033000Y-114961000D01*
X135525000Y-113935000D02*
X136551000Y-114961000D01*
X144145000Y-115316000D02*
X146304000Y-115316000D01*
X140208000Y-112522000D02*
X140208000Y-114808000D01*
X135001000Y-113935000D02*
X135525000Y-113935000D01*
X140208000Y-114808000D02*
X141478000Y-116078000D01*
X141478000Y-111252000D02*
X140208000Y-112522000D01*
%TO.N,GND*%
X130911000Y-112802000D02*
X130175000Y-112802000D01*
X131445000Y-111633000D02*
X131191000Y-111887000D01*
X133311000Y-112745000D02*
X133311000Y-112229000D01*
X133311000Y-112745000D02*
X133311000Y-113905000D01*
X133811000Y-115595000D02*
X133811000Y-114405000D01*
X133311000Y-112229000D02*
X132715000Y-111633000D01*
X131191000Y-111887000D02*
X131191000Y-112522000D01*
X132715000Y-111633000D02*
X131445000Y-111633000D01*
X132151000Y-114435000D02*
X133311000Y-114435000D01*
X131191000Y-112522000D02*
X130911000Y-112802000D01*
%TO.N,Net-(C3-Pad1)*%
X130049000Y-107639000D02*
X133858000Y-103830000D01*
X137922000Y-97790000D02*
X132588000Y-97790000D01*
X132024000Y-103830000D02*
X133858000Y-103830000D01*
X132588000Y-97790000D02*
X130556000Y-99822000D01*
X141478000Y-99822000D02*
X139954000Y-99822000D01*
X130049000Y-109601000D02*
X130049000Y-107639000D01*
X143510000Y-93218000D02*
X146660000Y-93218000D01*
X139954000Y-99822000D02*
X137922000Y-97790000D01*
X130556000Y-102362000D02*
X132024000Y-103830000D01*
X141478000Y-99822000D02*
X141478000Y-95250000D01*
X130049000Y-109601000D02*
X130049000Y-111126000D01*
X130556000Y-99822000D02*
X130556000Y-102362000D01*
X141478000Y-95250000D02*
X143510000Y-93218000D01*
%TO.N,Net-(C4-Pad1)*%
X137414000Y-105156000D02*
X138938000Y-103632000D01*
X137414000Y-103886000D02*
X137414000Y-109601000D01*
X135381000Y-109601000D02*
X137414000Y-109601000D01*
X133858000Y-100330000D02*
X137414000Y-103886000D01*
X141478000Y-103632000D02*
X147569000Y-103632000D01*
X138938000Y-103632000D02*
X141478000Y-103632000D01*
X137414000Y-109601000D02*
X137414000Y-105156000D01*
%TO.N,Net-(FB1-Pad1)*%
X134341000Y-111608000D02*
X134341000Y-112745000D01*
X133731000Y-110998000D02*
X134341000Y-111608000D01*
X133731000Y-109601000D02*
X133731000Y-110998000D01*
%TO.N,Net-(FB2-Pad1)*%
X131953000Y-110998000D02*
X131699000Y-110744000D01*
X133811000Y-111967000D02*
X132842000Y-110998000D01*
X131699000Y-110744000D02*
X131699000Y-109601000D01*
X132842000Y-110998000D02*
X131953000Y-110998000D01*
X133811000Y-112745000D02*
X133811000Y-111967000D01*
%TO.N,/SD_MODE*%
X148844000Y-119507000D02*
X148844000Y-115316000D01*
X138673000Y-116575000D02*
X141224000Y-119126000D01*
X141224000Y-119126000D02*
X142748000Y-120650000D01*
X148844000Y-115316000D02*
X148844000Y-111506000D01*
X134341000Y-115595000D02*
X134341000Y-116053000D01*
X134863000Y-116575000D02*
X138673000Y-116575000D01*
X134341000Y-116053000D02*
X134863000Y-116575000D01*
X147701000Y-120650000D02*
X148844000Y-119507000D01*
X148844000Y-111506000D02*
X148844000Y-107696000D01*
X142748000Y-120650000D02*
X147701000Y-120650000D01*
%TO.N,/GAIN*%
X133311000Y-116351000D02*
X133985000Y-117025000D01*
X133985000Y-117025000D02*
X136583000Y-117025000D01*
X133311000Y-115595000D02*
X133311000Y-116351000D01*
X136583000Y-117025000D02*
X138684000Y-119126000D01*
%TO.N,/DIN*%
X136144000Y-117983000D02*
X136144000Y-119126000D01*
X133477000Y-117475000D02*
X135636000Y-117475000D01*
X132811000Y-116809000D02*
X133477000Y-117475000D01*
X135636000Y-117475000D02*
X136144000Y-117983000D01*
X132811000Y-115595000D02*
X132811000Y-116809000D01*
%TO.N,/BCLK*%
X131641000Y-114935000D02*
X132151000Y-114935000D01*
X131514000Y-115062000D02*
X131641000Y-114935000D01*
X133604000Y-119126000D02*
X131514000Y-117036000D01*
X131514000Y-117036000D02*
X131514000Y-115062000D01*
%TO.N,/LRCLK*%
X131064000Y-119126000D02*
X131064000Y-114556315D01*
X131064000Y-114556315D02*
X131685315Y-113935000D01*
X131685315Y-113935000D02*
X132151000Y-113935000D01*
%TO.N,Net-(J3-Pad1)*%
X141478000Y-114428000D02*
X142239000Y-114428000D01*
X142239000Y-114428000D02*
X145161000Y-111506000D01*
X145161000Y-111506000D02*
X146304000Y-111506000D01*
%TO.N,Net-(J4-Pad1)*%
X144780000Y-107696000D02*
X146304000Y-107696000D01*
X141478000Y-109602000D02*
X142874000Y-109602000D01*
X142874000Y-109602000D02*
X144780000Y-107696000D01*
%TO.N,Net-(J8-Pad1)*%
X147574000Y-101087000D02*
X147574000Y-99060000D01*
X142494000Y-80112000D02*
X145974000Y-76632000D01*
X150368000Y-90170000D02*
X148336000Y-88138000D01*
X145034000Y-88138000D02*
X142494000Y-85598000D01*
X142494000Y-85598000D02*
X142494000Y-80112000D01*
X150368000Y-96266000D02*
X150368000Y-90170000D01*
X147574000Y-99060000D02*
X150368000Y-96266000D01*
X148336000Y-88138000D02*
X145034000Y-88138000D01*
%TD*%
%TA.AperFunction,Conductor*%
%TO.N,GND*%
G36*
X140404121Y-106446002D02*
G01*
X140450614Y-106499658D01*
X140462000Y-106552000D01*
X140462000Y-111319905D01*
X140441998Y-111388026D01*
X140425095Y-111409000D01*
X139815747Y-112018348D01*
X139807461Y-112025888D01*
X139800982Y-112030000D01*
X139795557Y-112035777D01*
X139754357Y-112079651D01*
X139751602Y-112082493D01*
X139731865Y-112102230D01*
X139729385Y-112105427D01*
X139721682Y-112114447D01*
X139691414Y-112146679D01*
X139687595Y-112153625D01*
X139687593Y-112153628D01*
X139681652Y-112164434D01*
X139670801Y-112180953D01*
X139658386Y-112196959D01*
X139655241Y-112204228D01*
X139655238Y-112204232D01*
X139640826Y-112237537D01*
X139635609Y-112248187D01*
X139614305Y-112286940D01*
X139612334Y-112294615D01*
X139612334Y-112294616D01*
X139609267Y-112306562D01*
X139602863Y-112325266D01*
X139594819Y-112343855D01*
X139594140Y-112348140D01*
X139556787Y-112406630D01*
X139492290Y-112436307D01*
X139461161Y-112436985D01*
X139366903Y-112427328D01*
X139360486Y-112427000D01*
X139337115Y-112427000D01*
X139321876Y-112431475D01*
X139320671Y-112432865D01*
X139319000Y-112440548D01*
X139319000Y-113513000D01*
X139298998Y-113581121D01*
X139245342Y-113627614D01*
X139193000Y-113639000D01*
X138100115Y-113639000D01*
X138056996Y-113651661D01*
X138044184Y-113659895D01*
X138008682Y-113665000D01*
X136905000Y-113665000D01*
X136836879Y-113644998D01*
X136790386Y-113591342D01*
X136779000Y-113539000D01*
X136779000Y-113138885D01*
X137287000Y-113138885D01*
X137291475Y-113154124D01*
X137292865Y-113155329D01*
X137300548Y-113157000D01*
X137997885Y-113157000D01*
X138041004Y-113144339D01*
X138053816Y-113136105D01*
X138089318Y-113131000D01*
X138792885Y-113131000D01*
X138808124Y-113126525D01*
X138809329Y-113125135D01*
X138811000Y-113117452D01*
X138811000Y-112445115D01*
X138806525Y-112429876D01*
X138805135Y-112428671D01*
X138797452Y-112427000D01*
X138769562Y-112427000D01*
X138763047Y-112427337D01*
X138670943Y-112436894D01*
X138657544Y-112439788D01*
X138508893Y-112489381D01*
X138495714Y-112495555D01*
X138362827Y-112577788D01*
X138351426Y-112586824D01*
X138241014Y-112697429D01*
X138232002Y-112708840D01*
X138148300Y-112844631D01*
X138095528Y-112892124D01*
X138025457Y-112903548D01*
X137960333Y-112875274D01*
X137933896Y-112844818D01*
X137865212Y-112733827D01*
X137856176Y-112722426D01*
X137745571Y-112612014D01*
X137734160Y-112603002D01*
X137601120Y-112520996D01*
X137587939Y-112514849D01*
X137439186Y-112465509D01*
X137425810Y-112462642D01*
X137334903Y-112453328D01*
X137328486Y-112453000D01*
X137305115Y-112453000D01*
X137289876Y-112457475D01*
X137288671Y-112458865D01*
X137287000Y-112466548D01*
X137287000Y-113138885D01*
X136779000Y-113138885D01*
X136779000Y-112471115D01*
X136774525Y-112455876D01*
X136773135Y-112454671D01*
X136765452Y-112453000D01*
X136737562Y-112453000D01*
X136731047Y-112453337D01*
X136638943Y-112462894D01*
X136625544Y-112465788D01*
X136476893Y-112515381D01*
X136463714Y-112521555D01*
X136336303Y-112600399D01*
X136267851Y-112619237D01*
X136200081Y-112598076D01*
X136154510Y-112543635D01*
X136144000Y-112493255D01*
X136144000Y-110360500D01*
X136164002Y-110292379D01*
X136217658Y-110245886D01*
X136270000Y-110234500D01*
X136493501Y-110234500D01*
X136561622Y-110254502D01*
X136600644Y-110294195D01*
X136606395Y-110303488D01*
X136606399Y-110303493D01*
X136610248Y-110309713D01*
X136731298Y-110430552D01*
X136737528Y-110434392D01*
X136737529Y-110434393D01*
X136869020Y-110515445D01*
X136876899Y-110520302D01*
X137039243Y-110574149D01*
X137046080Y-110574849D01*
X137046082Y-110574850D01*
X137087401Y-110579083D01*
X137140268Y-110584500D01*
X137687732Y-110584500D01*
X137690978Y-110584163D01*
X137690982Y-110584163D01*
X137725083Y-110580625D01*
X137790019Y-110573887D01*
X137824737Y-110562304D01*
X137945324Y-110522073D01*
X137945326Y-110522072D01*
X137952268Y-110519756D01*
X138097713Y-110429752D01*
X138102886Y-110424570D01*
X138108623Y-110420023D01*
X138110055Y-110421830D01*
X138162575Y-110393098D01*
X138233395Y-110398108D01*
X138269853Y-110421499D01*
X138270683Y-110420448D01*
X138287840Y-110433998D01*
X138420880Y-110516004D01*
X138434061Y-110522151D01*
X138582814Y-110571491D01*
X138596190Y-110574358D01*
X138687097Y-110583672D01*
X138692126Y-110583929D01*
X138707124Y-110579525D01*
X138708329Y-110578135D01*
X138710000Y-110570452D01*
X138710000Y-110565885D01*
X139218000Y-110565885D01*
X139222475Y-110581124D01*
X139223865Y-110582329D01*
X139231548Y-110584000D01*
X139234438Y-110584000D01*
X139240953Y-110583663D01*
X139333057Y-110574106D01*
X139346456Y-110571212D01*
X139495107Y-110521619D01*
X139508286Y-110515445D01*
X139641173Y-110433212D01*
X139652574Y-110424176D01*
X139762986Y-110313571D01*
X139771998Y-110302160D01*
X139854004Y-110169120D01*
X139860151Y-110155939D01*
X139909491Y-110007186D01*
X139912358Y-109993810D01*
X139921672Y-109902903D01*
X139922000Y-109896487D01*
X139922000Y-109873115D01*
X139917525Y-109857876D01*
X139916135Y-109856671D01*
X139908452Y-109855000D01*
X139236115Y-109855000D01*
X139220876Y-109859475D01*
X139219671Y-109860865D01*
X139218000Y-109868548D01*
X139218000Y-110565885D01*
X138710000Y-110565885D01*
X138710000Y-109328885D01*
X139218000Y-109328885D01*
X139222475Y-109344124D01*
X139223865Y-109345329D01*
X139231548Y-109347000D01*
X139903885Y-109347000D01*
X139919124Y-109342525D01*
X139920329Y-109341135D01*
X139922000Y-109333452D01*
X139922000Y-109305562D01*
X139921663Y-109299047D01*
X139912106Y-109206943D01*
X139909212Y-109193544D01*
X139859619Y-109044893D01*
X139853445Y-109031714D01*
X139771212Y-108898827D01*
X139762176Y-108887426D01*
X139651571Y-108777014D01*
X139640160Y-108768002D01*
X139507120Y-108685996D01*
X139493939Y-108679849D01*
X139345186Y-108630509D01*
X139331810Y-108627642D01*
X139240903Y-108618328D01*
X139235874Y-108618071D01*
X139220876Y-108622475D01*
X139219671Y-108623865D01*
X139218000Y-108631548D01*
X139218000Y-109328885D01*
X138710000Y-109328885D01*
X138710000Y-108636115D01*
X138705525Y-108620876D01*
X138704135Y-108619671D01*
X138696452Y-108618000D01*
X138693562Y-108618000D01*
X138687047Y-108618337D01*
X138594943Y-108627894D01*
X138581544Y-108630788D01*
X138432893Y-108680381D01*
X138419714Y-108686555D01*
X138286827Y-108768788D01*
X138269689Y-108782371D01*
X138268159Y-108780441D01*
X138216120Y-108808903D01*
X138145301Y-108803887D01*
X138108382Y-108780201D01*
X138107627Y-108781156D01*
X138101881Y-108776618D01*
X138096702Y-108771448D01*
X138094330Y-108769986D01*
X138054345Y-108713588D01*
X138047500Y-108672624D01*
X138047500Y-106552000D01*
X138067502Y-106483879D01*
X138121158Y-106437386D01*
X138173500Y-106426000D01*
X140336000Y-106426000D01*
X140404121Y-106446002D01*
G37*
%TD.AperFunction*%
%TD*%
%TA.AperFunction,Conductor*%
%TO.N,GND*%
G36*
X129143971Y-111526002D02*
G01*
X129190464Y-111579658D01*
X129199932Y-111614426D01*
X129199946Y-111614423D01*
X129200004Y-111614691D01*
X129201177Y-111618999D01*
X129202113Y-111628019D01*
X129204295Y-111634559D01*
X129250807Y-111773970D01*
X129256244Y-111790268D01*
X129346248Y-111935713D01*
X129351430Y-111940886D01*
X129355977Y-111946623D01*
X129354170Y-111948055D01*
X129382902Y-112000575D01*
X129377892Y-112071395D01*
X129354501Y-112107853D01*
X129355552Y-112108683D01*
X129342002Y-112125840D01*
X129259996Y-112258880D01*
X129253849Y-112272061D01*
X129204509Y-112420814D01*
X129201642Y-112434190D01*
X129192328Y-112525097D01*
X129192071Y-112530126D01*
X129196475Y-112545124D01*
X129197865Y-112546329D01*
X129205548Y-112548000D01*
X130303000Y-112548000D01*
X130371121Y-112568002D01*
X130417614Y-112621658D01*
X130429000Y-112674000D01*
X130429000Y-113741885D01*
X130433475Y-113757124D01*
X130434865Y-113758329D01*
X130442548Y-113760000D01*
X130470438Y-113760000D01*
X130476953Y-113759663D01*
X130569057Y-113750106D01*
X130582459Y-113747211D01*
X130668221Y-113718600D01*
X130739171Y-113716016D01*
X130800254Y-113752200D01*
X130832078Y-113815665D01*
X130824539Y-113886260D01*
X130797193Y-113927218D01*
X130676166Y-114048244D01*
X130671742Y-114052668D01*
X130663463Y-114060202D01*
X130656982Y-114064315D01*
X130610357Y-114113966D01*
X130607602Y-114116808D01*
X130587865Y-114136545D01*
X130585385Y-114139742D01*
X130577682Y-114148762D01*
X130547414Y-114180994D01*
X130543595Y-114187940D01*
X130543593Y-114187943D01*
X130537652Y-114198749D01*
X130526801Y-114215268D01*
X130514386Y-114231274D01*
X130511241Y-114238543D01*
X130511238Y-114238547D01*
X130496826Y-114271852D01*
X130491609Y-114282502D01*
X130470305Y-114321255D01*
X130468334Y-114328930D01*
X130468334Y-114328931D01*
X130465267Y-114340877D01*
X130458863Y-114359581D01*
X130450819Y-114378170D01*
X130449580Y-114385993D01*
X130449577Y-114386003D01*
X130443901Y-114421839D01*
X130441495Y-114433459D01*
X130438829Y-114443843D01*
X130430500Y-114476285D01*
X130430500Y-114496539D01*
X130428949Y-114516249D01*
X130425780Y-114536258D01*
X130426526Y-114544150D01*
X130429941Y-114580276D01*
X130430500Y-114592134D01*
X130430500Y-116714000D01*
X130410498Y-116782121D01*
X130356842Y-116828614D01*
X130304500Y-116840000D01*
X128142000Y-116840000D01*
X128073879Y-116819998D01*
X128027386Y-116766342D01*
X128016000Y-116714000D01*
X128016000Y-113072438D01*
X129192000Y-113072438D01*
X129192337Y-113078953D01*
X129201894Y-113171057D01*
X129204788Y-113184456D01*
X129254381Y-113333107D01*
X129260555Y-113346286D01*
X129342788Y-113479173D01*
X129351824Y-113490574D01*
X129462429Y-113600986D01*
X129473840Y-113609998D01*
X129606880Y-113692004D01*
X129620061Y-113698151D01*
X129768814Y-113747491D01*
X129782190Y-113750358D01*
X129873097Y-113759672D01*
X129879513Y-113760000D01*
X129902885Y-113760000D01*
X129918124Y-113755525D01*
X129919329Y-113754135D01*
X129921000Y-113746452D01*
X129921000Y-113074115D01*
X129916525Y-113058876D01*
X129915135Y-113057671D01*
X129907452Y-113056000D01*
X129210115Y-113056000D01*
X129194876Y-113060475D01*
X129193671Y-113061865D01*
X129192000Y-113069548D01*
X129192000Y-113072438D01*
X128016000Y-113072438D01*
X128016000Y-111632000D01*
X128036002Y-111563879D01*
X128089658Y-111517386D01*
X128142000Y-111506000D01*
X129075850Y-111506000D01*
X129143971Y-111526002D01*
G37*
%TD.AperFunction*%
%TA.AperFunction,Conductor*%
G36*
X131272708Y-111773970D02*
G01*
X131312207Y-111832964D01*
X131318000Y-111870729D01*
X131318000Y-112183995D01*
X131297998Y-112252116D01*
X131244342Y-112298609D01*
X131174068Y-112308713D01*
X131109488Y-112279219D01*
X131084856Y-112250298D01*
X131007212Y-112124827D01*
X130993629Y-112107689D01*
X130995559Y-112106159D01*
X130967097Y-112054120D01*
X130972113Y-111983301D01*
X130995799Y-111946383D01*
X130994843Y-111945628D01*
X130999381Y-111939882D01*
X131004552Y-111934702D01*
X131084741Y-111804613D01*
X131137512Y-111757120D01*
X131207584Y-111745696D01*
X131272708Y-111773970D01*
G37*
%TD.AperFunction*%
%TD*%
M02*
