%TF.GenerationSoftware,KiCad,Pcbnew,(6.0.7)*%
%TF.CreationDate,2022-11-28T20:00:57-08:00*%
%TF.ProjectId,max98357-amp,6d617839-3833-4353-972d-616d702e6b69,rev?*%
%TF.SameCoordinates,Original*%
%TF.FileFunction,Legend,Top*%
%TF.FilePolarity,Positive*%
%FSLAX46Y46*%
G04 Gerber Fmt 4.6, Leading zero omitted, Abs format (unit mm)*
G04 Created by KiCad (PCBNEW (6.0.7)) date 2022-11-28 20:00:57*
%MOMM*%
%LPD*%
G01*
G04 APERTURE LIST*
%ADD10C,0.150000*%
%ADD11C,0.120000*%
%ADD12C,0.264583*%
G04 APERTURE END LIST*
D10*
%TO.C,J1*%
X148764666Y-118578380D02*
X148764666Y-119292666D01*
X148717047Y-119435523D01*
X148621809Y-119530761D01*
X148478952Y-119578380D01*
X148383714Y-119578380D01*
X149764666Y-119578380D02*
X149193238Y-119578380D01*
X149478952Y-119578380D02*
X149478952Y-118578380D01*
X149383714Y-118721238D01*
X149288476Y-118816476D01*
X149193238Y-118864095D01*
%TO.C,C4*%
X138009333Y-108561142D02*
X137961714Y-108608761D01*
X137818857Y-108656380D01*
X137723619Y-108656380D01*
X137580761Y-108608761D01*
X137485523Y-108513523D01*
X137437904Y-108418285D01*
X137390285Y-108227809D01*
X137390285Y-108084952D01*
X137437904Y-107894476D01*
X137485523Y-107799238D01*
X137580761Y-107704000D01*
X137723619Y-107656380D01*
X137818857Y-107656380D01*
X137961714Y-107704000D01*
X138009333Y-107751619D01*
X138866476Y-107989714D02*
X138866476Y-108656380D01*
X138628380Y-107608761D02*
X138390285Y-108323047D01*
X139009333Y-108323047D01*
%TO.C,J6*%
X138477666Y-103084380D02*
X138477666Y-103798666D01*
X138430047Y-103941523D01*
X138334809Y-104036761D01*
X138191952Y-104084380D01*
X138096714Y-104084380D01*
X139382428Y-103084380D02*
X139191952Y-103084380D01*
X139096714Y-103132000D01*
X139049095Y-103179619D01*
X138953857Y-103322476D01*
X138906238Y-103512952D01*
X138906238Y-103893904D01*
X138953857Y-103989142D01*
X139001476Y-104036761D01*
X139096714Y-104084380D01*
X139287190Y-104084380D01*
X139382428Y-104036761D01*
X139430047Y-103989142D01*
X139477666Y-103893904D01*
X139477666Y-103655809D01*
X139430047Y-103560571D01*
X139382428Y-103512952D01*
X139287190Y-103465333D01*
X139096714Y-103465333D01*
X139001476Y-103512952D01*
X138953857Y-103560571D01*
X138906238Y-103655809D01*
%TO.C,R2*%
X141311333Y-108657380D02*
X140978000Y-108181190D01*
X140739904Y-108657380D02*
X140739904Y-107657380D01*
X141120857Y-107657380D01*
X141216095Y-107705000D01*
X141263714Y-107752619D01*
X141311333Y-107847857D01*
X141311333Y-107990714D01*
X141263714Y-108085952D01*
X141216095Y-108133571D01*
X141120857Y-108181190D01*
X140739904Y-108181190D01*
X141692285Y-107752619D02*
X141739904Y-107705000D01*
X141835142Y-107657380D01*
X142073238Y-107657380D01*
X142168476Y-107705000D01*
X142216095Y-107752619D01*
X142263714Y-107847857D01*
X142263714Y-107943095D01*
X142216095Y-108085952D01*
X141644666Y-108657380D01*
X142263714Y-108657380D01*
%TO.C,C1*%
X138898333Y-116663142D02*
X138850714Y-116710761D01*
X138707857Y-116758380D01*
X138612619Y-116758380D01*
X138469761Y-116710761D01*
X138374523Y-116615523D01*
X138326904Y-116520285D01*
X138279285Y-116329809D01*
X138279285Y-116186952D01*
X138326904Y-115996476D01*
X138374523Y-115901238D01*
X138469761Y-115806000D01*
X138612619Y-115758380D01*
X138707857Y-115758380D01*
X138850714Y-115806000D01*
X138898333Y-115853619D01*
X139850714Y-116758380D02*
X139279285Y-116758380D01*
X139565000Y-116758380D02*
X139565000Y-115758380D01*
X139469761Y-115901238D01*
X139374523Y-115996476D01*
X139279285Y-116044095D01*
%TO.C,J3*%
X143303666Y-110958380D02*
X143303666Y-111672666D01*
X143256047Y-111815523D01*
X143160809Y-111910761D01*
X143017952Y-111958380D01*
X142922714Y-111958380D01*
X143684619Y-110958380D02*
X144303666Y-110958380D01*
X143970333Y-111339333D01*
X144113190Y-111339333D01*
X144208428Y-111386952D01*
X144256047Y-111434571D01*
X144303666Y-111529809D01*
X144303666Y-111767904D01*
X144256047Y-111863142D01*
X144208428Y-111910761D01*
X144113190Y-111958380D01*
X143827476Y-111958380D01*
X143732238Y-111910761D01*
X143684619Y-111863142D01*
%TO.C,J7*%
X129206666Y-96734380D02*
X129206666Y-97448666D01*
X129159047Y-97591523D01*
X129063809Y-97686761D01*
X128920952Y-97734380D01*
X128825714Y-97734380D01*
X129587619Y-96734380D02*
X130254285Y-96734380D01*
X129825714Y-97734380D01*
%TO.C,R1*%
X141374333Y-113546380D02*
X141041000Y-113070190D01*
X140802904Y-113546380D02*
X140802904Y-112546380D01*
X141183857Y-112546380D01*
X141279095Y-112594000D01*
X141326714Y-112641619D01*
X141374333Y-112736857D01*
X141374333Y-112879714D01*
X141326714Y-112974952D01*
X141279095Y-113022571D01*
X141183857Y-113070190D01*
X140802904Y-113070190D01*
X142326714Y-113546380D02*
X141755285Y-113546380D01*
X142041000Y-113546380D02*
X142041000Y-112546380D01*
X141945761Y-112689238D01*
X141850523Y-112784476D01*
X141755285Y-112832095D01*
%TO.C,S1*%
X138512095Y-72890761D02*
X138654952Y-72938380D01*
X138893047Y-72938380D01*
X138988285Y-72890761D01*
X139035904Y-72843142D01*
X139083523Y-72747904D01*
X139083523Y-72652666D01*
X139035904Y-72557428D01*
X138988285Y-72509809D01*
X138893047Y-72462190D01*
X138702571Y-72414571D01*
X138607333Y-72366952D01*
X138559714Y-72319333D01*
X138512095Y-72224095D01*
X138512095Y-72128857D01*
X138559714Y-72033619D01*
X138607333Y-71986000D01*
X138702571Y-71938380D01*
X138940666Y-71938380D01*
X139083523Y-71986000D01*
X140035904Y-72938380D02*
X139464476Y-72938380D01*
X139750190Y-72938380D02*
X139750190Y-71938380D01*
X139654952Y-72081238D01*
X139559714Y-72176476D01*
X139464476Y-72224095D01*
%TO.C,U1*%
X132814095Y-110802380D02*
X132814095Y-111611904D01*
X132861714Y-111707142D01*
X132909333Y-111754761D01*
X133004571Y-111802380D01*
X133195047Y-111802380D01*
X133290285Y-111754761D01*
X133337904Y-111707142D01*
X133385523Y-111611904D01*
X133385523Y-110802380D01*
X134385523Y-111802380D02*
X133814095Y-111802380D01*
X134099809Y-111802380D02*
X134099809Y-110802380D01*
X134004571Y-110945238D01*
X133909333Y-111040476D01*
X133814095Y-111088095D01*
%TO.C,J5*%
X138477666Y-99401380D02*
X138477666Y-100115666D01*
X138430047Y-100258523D01*
X138334809Y-100353761D01*
X138191952Y-100401380D01*
X138096714Y-100401380D01*
X139430047Y-99401380D02*
X138953857Y-99401380D01*
X138906238Y-99877571D01*
X138953857Y-99829952D01*
X139049095Y-99782333D01*
X139287190Y-99782333D01*
X139382428Y-99829952D01*
X139430047Y-99877571D01*
X139477666Y-99972809D01*
X139477666Y-100210904D01*
X139430047Y-100306142D01*
X139382428Y-100353761D01*
X139287190Y-100401380D01*
X139049095Y-100401380D01*
X138953857Y-100353761D01*
X138906238Y-100306142D01*
%TO.C,C2*%
X136879333Y-116702142D02*
X136831714Y-116749761D01*
X136688857Y-116797380D01*
X136593619Y-116797380D01*
X136450761Y-116749761D01*
X136355523Y-116654523D01*
X136307904Y-116559285D01*
X136260285Y-116368809D01*
X136260285Y-116225952D01*
X136307904Y-116035476D01*
X136355523Y-115940238D01*
X136450761Y-115845000D01*
X136593619Y-115797380D01*
X136688857Y-115797380D01*
X136831714Y-115845000D01*
X136879333Y-115892619D01*
X137260285Y-115892619D02*
X137307904Y-115845000D01*
X137403142Y-115797380D01*
X137641238Y-115797380D01*
X137736476Y-115845000D01*
X137784095Y-115892619D01*
X137831714Y-115987857D01*
X137831714Y-116083095D01*
X137784095Y-116225952D01*
X137212666Y-116797380D01*
X137831714Y-116797380D01*
%TO.C,FB2*%
X130040666Y-108122747D02*
X129707333Y-108122747D01*
X129707333Y-108646556D02*
X129707333Y-107646556D01*
X130183523Y-107646556D01*
X130897809Y-108122747D02*
X131040666Y-108170366D01*
X131088285Y-108217985D01*
X131135904Y-108313223D01*
X131135904Y-108456080D01*
X131088285Y-108551318D01*
X131040666Y-108598937D01*
X130945428Y-108646556D01*
X130564476Y-108646556D01*
X130564476Y-107646556D01*
X130897809Y-107646556D01*
X130993047Y-107694176D01*
X131040666Y-107741795D01*
X131088285Y-107837033D01*
X131088285Y-107932271D01*
X131040666Y-108027509D01*
X130993047Y-108075128D01*
X130897809Y-108122747D01*
X130564476Y-108122747D01*
X131516857Y-107741795D02*
X131564476Y-107694176D01*
X131659714Y-107646556D01*
X131897809Y-107646556D01*
X131993047Y-107694176D01*
X132040666Y-107741795D01*
X132088285Y-107837033D01*
X132088285Y-107932271D01*
X132040666Y-108075128D01*
X131469238Y-108646556D01*
X132088285Y-108646556D01*
%TO.C,J2*%
X143303666Y-114768380D02*
X143303666Y-115482666D01*
X143256047Y-115625523D01*
X143160809Y-115720761D01*
X143017952Y-115768380D01*
X142922714Y-115768380D01*
X143732238Y-114863619D02*
X143779857Y-114816000D01*
X143875095Y-114768380D01*
X144113190Y-114768380D01*
X144208428Y-114816000D01*
X144256047Y-114863619D01*
X144303666Y-114958857D01*
X144303666Y-115054095D01*
X144256047Y-115196952D01*
X143684619Y-115768380D01*
X144303666Y-115768380D01*
%TO.C,C3*%
X130021333Y-114543142D02*
X129973714Y-114590761D01*
X129830857Y-114638380D01*
X129735619Y-114638380D01*
X129592761Y-114590761D01*
X129497523Y-114495523D01*
X129449904Y-114400285D01*
X129402285Y-114209809D01*
X129402285Y-114066952D01*
X129449904Y-113876476D01*
X129497523Y-113781238D01*
X129592761Y-113686000D01*
X129735619Y-113638380D01*
X129830857Y-113638380D01*
X129973714Y-113686000D01*
X130021333Y-113733619D01*
X130354666Y-113638380D02*
X130973714Y-113638380D01*
X130640380Y-114019333D01*
X130783238Y-114019333D01*
X130878476Y-114066952D01*
X130926095Y-114114571D01*
X130973714Y-114209809D01*
X130973714Y-114447904D01*
X130926095Y-114543142D01*
X130878476Y-114590761D01*
X130783238Y-114638380D01*
X130497523Y-114638380D01*
X130402285Y-114590761D01*
X130354666Y-114543142D01*
%TO.C,FB1*%
X133722666Y-108132571D02*
X133389333Y-108132571D01*
X133389333Y-108656380D02*
X133389333Y-107656380D01*
X133865523Y-107656380D01*
X134579809Y-108132571D02*
X134722666Y-108180190D01*
X134770285Y-108227809D01*
X134817904Y-108323047D01*
X134817904Y-108465904D01*
X134770285Y-108561142D01*
X134722666Y-108608761D01*
X134627428Y-108656380D01*
X134246476Y-108656380D01*
X134246476Y-107656380D01*
X134579809Y-107656380D01*
X134675047Y-107704000D01*
X134722666Y-107751619D01*
X134770285Y-107846857D01*
X134770285Y-107942095D01*
X134722666Y-108037333D01*
X134675047Y-108084952D01*
X134579809Y-108132571D01*
X134246476Y-108132571D01*
X135770285Y-108656380D02*
X135198857Y-108656380D01*
X135484571Y-108656380D02*
X135484571Y-107656380D01*
X135389333Y-107799238D01*
X135294095Y-107894476D01*
X135198857Y-107942095D01*
%TO.C,J8*%
X147240666Y-98209380D02*
X147240666Y-98923666D01*
X147193047Y-99066523D01*
X147097809Y-99161761D01*
X146954952Y-99209380D01*
X146859714Y-99209380D01*
X147859714Y-98637952D02*
X147764476Y-98590333D01*
X147716857Y-98542714D01*
X147669238Y-98447476D01*
X147669238Y-98399857D01*
X147716857Y-98304619D01*
X147764476Y-98257000D01*
X147859714Y-98209380D01*
X148050190Y-98209380D01*
X148145428Y-98257000D01*
X148193047Y-98304619D01*
X148240666Y-98399857D01*
X148240666Y-98447476D01*
X148193047Y-98542714D01*
X148145428Y-98590333D01*
X148050190Y-98637952D01*
X147859714Y-98637952D01*
X147764476Y-98685571D01*
X147716857Y-98733190D01*
X147669238Y-98828428D01*
X147669238Y-99018904D01*
X147716857Y-99114142D01*
X147764476Y-99161761D01*
X147859714Y-99209380D01*
X148050190Y-99209380D01*
X148145428Y-99161761D01*
X148193047Y-99114142D01*
X148240666Y-99018904D01*
X148240666Y-98828428D01*
X148193047Y-98733190D01*
X148145428Y-98685571D01*
X148050190Y-98637952D01*
%TO.C,J4*%
X143303666Y-107148380D02*
X143303666Y-107862666D01*
X143256047Y-108005523D01*
X143160809Y-108100761D01*
X143017952Y-108148380D01*
X142922714Y-108148380D01*
X144208428Y-107481714D02*
X144208428Y-108148380D01*
X143970333Y-107100761D02*
X143732238Y-107815047D01*
X144351285Y-107815047D01*
D11*
%TO.C,J1*%
X145034000Y-117796000D02*
X129734000Y-117796000D01*
X145034000Y-120456000D02*
X129734000Y-120456000D01*
X129734000Y-117796000D02*
X129734000Y-120456000D01*
X147634000Y-117796000D02*
X147634000Y-119126000D01*
X146304000Y-117796000D02*
X147634000Y-117796000D01*
X145034000Y-117796000D02*
X145034000Y-120456000D01*
%TO.C,C4*%
X138048420Y-109091000D02*
X138329580Y-109091000D01*
X138048420Y-110111000D02*
X138329580Y-110111000D01*
%TO.C,J6*%
X140148000Y-104902000D02*
X142808000Y-104902000D01*
X140148000Y-103632000D02*
X140148000Y-102302000D01*
X140148000Y-104902000D02*
X140148000Y-104962000D01*
X140148000Y-102302000D02*
X141478000Y-102302000D01*
X142808000Y-104902000D02*
X142808000Y-104962000D01*
X140148000Y-104962000D02*
X142808000Y-104962000D01*
%TO.C,R2*%
X142000500Y-110664258D02*
X142000500Y-110189742D01*
X140955500Y-110664258D02*
X140955500Y-110189742D01*
%TO.C,C1*%
X139575000Y-114300580D02*
X139575000Y-114019420D01*
X138555000Y-114300580D02*
X138555000Y-114019420D01*
%TO.C,J3*%
X147574000Y-112836000D02*
X147574000Y-110176000D01*
X150174000Y-112836000D02*
X150174000Y-110176000D01*
X144974000Y-112836000D02*
X144974000Y-111506000D01*
X146304000Y-112836000D02*
X144974000Y-112836000D01*
X147574000Y-110176000D02*
X150174000Y-110176000D01*
X147574000Y-112836000D02*
X150174000Y-112836000D01*
%TO.C,J7*%
X129758000Y-98520000D02*
X129758000Y-105640000D01*
X129698000Y-98280000D02*
X129058000Y-98280000D01*
X130858000Y-98520000D02*
X130858000Y-105640000D01*
X132917000Y-102685000D02*
X132789000Y-102556000D01*
X129058000Y-98280000D02*
X129058000Y-98680000D01*
X137018000Y-105640000D02*
X129298000Y-105640000D01*
X129298000Y-98520000D02*
X129298000Y-105640000D01*
X137018000Y-98520000D02*
X129298000Y-98520000D01*
X137018000Y-98520000D02*
X137018000Y-105640000D01*
X134927000Y-105105000D02*
X134799000Y-104976000D01*
X132677000Y-102855000D02*
X132584000Y-102761000D01*
X135133000Y-104900000D02*
X135039000Y-104806000D01*
X135298001Y-101196000D02*
G75*
G03*
X135283358Y-99440106I-1439999J866000D01*
G01*
X132418000Y-99464000D02*
G75*
G03*
X132177901Y-100358674I1440014J-866003D01*
G01*
X134724000Y-98889999D02*
G75*
G03*
X132968106Y-98904642I-866000J-1439999D01*
G01*
X132967000Y-101755000D02*
G75*
G03*
X134748193Y-101755504I891000J1425003D01*
G01*
X132178000Y-100330000D02*
G75*
G03*
X132433279Y-101220264I1679990J-3D01*
G01*
X135538000Y-103830000D02*
G75*
G03*
X135538000Y-103830000I-1680000J0D01*
G01*
%TO.C,R1*%
X142000500Y-115490258D02*
X142000500Y-115015742D01*
X140955500Y-115490258D02*
X140955500Y-115015742D01*
D12*
%TO.C,S1*%
X147918201Y-73676856D02*
X147871031Y-73635996D01*
X147550128Y-73441298D02*
X147491093Y-73418021D01*
X130824458Y-73496038D02*
X130770018Y-73527340D01*
X127697314Y-85440063D02*
X127738695Y-85603472D01*
X149685454Y-82939180D02*
X149514020Y-82852607D01*
X148470705Y-82329927D02*
X148456005Y-82308070D01*
X148346248Y-81983199D02*
X148344650Y-81955914D01*
X130524876Y-96158376D02*
X130570024Y-96201421D01*
X130366133Y-73912291D02*
X130332319Y-73965036D01*
X147416007Y-96485168D02*
X147474323Y-96466268D01*
X128359406Y-86616949D02*
X128495371Y-86733791D01*
X148616097Y-87395569D02*
X148659528Y-87364581D01*
X150844115Y-84938969D02*
X150838203Y-84770903D01*
X131311196Y-73345848D02*
X131246137Y-73354115D01*
X130139318Y-87867559D02*
X130141966Y-87894606D01*
X130017478Y-87547959D02*
X130032178Y-87569811D01*
X147890144Y-96226203D02*
X147934699Y-96186171D01*
X148705527Y-87336820D02*
X148753961Y-87312475D01*
X130222996Y-74192151D02*
X130202557Y-74252554D01*
X129734273Y-82565459D02*
X129683529Y-82586198D01*
X130770018Y-96350934D02*
X130824458Y-96382236D01*
X148362950Y-87788045D02*
X148377226Y-87736637D01*
X148344114Y-81928422D02*
X148344114Y-80802408D01*
X131057535Y-73397581D02*
X130997132Y-73418019D01*
X129683529Y-82586198D02*
X129157463Y-82777675D01*
X130997132Y-96460257D02*
X131057535Y-96480695D01*
X148575336Y-82448321D02*
X148556026Y-82430226D01*
X148284141Y-95630604D02*
X148301243Y-95571504D01*
X129912855Y-87429595D02*
X129932163Y-87447685D01*
X130185039Y-74314245D02*
X130170523Y-74377140D01*
X150365281Y-86358429D02*
X150465777Y-86218304D01*
X148127672Y-95957657D02*
X148159801Y-95906790D01*
X147044113Y-73339137D02*
X131444113Y-73339137D01*
X148556026Y-82430226D02*
X148537442Y-82411444D01*
X148344114Y-89247935D02*
X148344114Y-87949371D01*
X130524876Y-73719895D02*
X130481831Y-73765043D01*
X149685454Y-86938759D02*
X149845066Y-86841320D01*
X130170523Y-74377140D02*
X130159090Y-74441159D01*
X130481831Y-73765043D02*
X130440971Y-73812213D01*
X130135663Y-82037049D02*
X130125303Y-82089778D01*
X130092985Y-82191112D02*
X130071294Y-82239333D01*
X149992854Y-83144147D02*
X149845066Y-83036619D01*
X150554450Y-83805970D02*
X150465777Y-83659635D01*
X130440971Y-73812213D02*
X130402378Y-73861323D01*
X148442131Y-82285669D02*
X148429101Y-82262749D01*
X130111033Y-82141197D02*
X130092985Y-82191112D01*
X150838203Y-85107035D02*
X150844115Y-84938969D01*
X149330762Y-87100263D02*
X149514020Y-87025332D01*
X131057535Y-96480695D02*
X131119225Y-96498213D01*
X127933776Y-86071969D02*
X128022449Y-86218304D01*
X129850742Y-87379686D02*
X129872128Y-87395572D01*
X127667757Y-84603613D02*
X127650022Y-84770903D01*
X131377215Y-96537450D02*
X131444113Y-96539141D01*
X148779045Y-82576306D02*
X148753953Y-82565472D01*
X129734264Y-87312476D02*
X129758777Y-87324209D01*
X131182119Y-73365548D02*
X131119225Y-73380064D01*
X148344114Y-74727505D02*
X148344114Y-74639138D01*
X127697314Y-84437876D02*
X127667757Y-84603613D01*
X130402378Y-96016948D02*
X130440971Y-96066058D01*
X148804697Y-87291740D02*
X148804697Y-87291740D01*
X130170523Y-95501132D02*
X130185039Y-95564027D01*
X129985705Y-82371913D02*
X129950784Y-82411441D01*
X150465777Y-83659635D02*
X150365281Y-83519509D01*
X131246137Y-73354115D02*
X131182119Y-73365548D01*
X147044113Y-96539141D02*
X147108352Y-96537582D01*
X130150823Y-95372055D02*
X130159090Y-95437114D01*
X128974205Y-87025332D02*
X129157463Y-87100263D01*
X148369577Y-82115663D02*
X148362922Y-82089778D01*
X130144111Y-74639138D02*
X130144111Y-81928422D01*
X148189606Y-95854369D02*
X148217015Y-95800468D01*
X148416931Y-82239334D02*
X148405639Y-82215447D01*
X129782715Y-82541109D02*
X129734273Y-82565459D01*
X147745860Y-96333656D02*
X147795653Y-96300018D01*
X130150823Y-74506219D02*
X130145803Y-74572239D01*
X130366133Y-95965979D02*
X130402378Y-96016948D01*
X127738695Y-85603472D02*
X127791899Y-85763777D01*
X130144111Y-74639138D02*
X130144111Y-74639138D01*
X150631300Y-83957737D02*
X150554450Y-83805970D01*
X147770952Y-73561158D02*
X147718207Y-73527344D01*
X129709176Y-87301645D02*
X129734264Y-87312476D01*
X129758777Y-87324209D02*
X129782698Y-87336820D01*
X131119225Y-96498213D02*
X131182119Y-96512730D01*
X129828698Y-87364583D02*
X129850742Y-87379686D01*
X127650022Y-85107035D02*
X127667757Y-85274325D01*
X149845066Y-86841320D02*
X149992854Y-86733791D01*
X148337402Y-74506222D02*
X148329135Y-74441162D01*
X148352562Y-82037049D02*
X148348891Y-82010252D01*
X130617194Y-73635991D02*
X130570024Y-73676850D01*
X130144111Y-87949371D02*
X130144111Y-95239138D01*
X150749530Y-84274466D02*
X150696326Y-84114161D01*
X150790911Y-85440063D02*
X150820469Y-85274325D01*
X148595356Y-82465704D02*
X148575336Y-82448321D01*
X148056732Y-96054444D02*
X148093292Y-96006899D01*
X130332319Y-73965036D02*
X130301016Y-74019476D01*
X148616068Y-82482353D02*
X148595356Y-82465704D01*
X128359406Y-83260989D02*
X128235264Y-83386369D01*
X148335714Y-95387775D02*
X148341352Y-95324631D01*
X148362922Y-82089778D02*
X148357245Y-82063565D01*
X127933776Y-83805970D02*
X127856926Y-83957737D01*
X148018065Y-96100219D02*
X148056732Y-96054444D01*
X147963349Y-73719901D02*
X147918201Y-73676856D01*
X148285668Y-74252560D02*
X148265229Y-74192157D01*
X130001968Y-87526674D02*
X130017478Y-87547959D01*
X148264355Y-95688514D02*
X148284141Y-95630604D01*
X128235264Y-83386369D02*
X128122945Y-83519509D01*
X130046052Y-87592206D02*
X130059083Y-87615120D01*
X130824458Y-96382236D02*
X130880512Y-96410946D01*
X129950745Y-87466462D02*
X129968585Y-87485901D01*
X130272307Y-74075530D02*
X130246273Y-74133115D01*
X129912890Y-82448315D02*
X129872157Y-82482346D01*
X150820469Y-84603613D02*
X150790911Y-84437876D01*
X147795653Y-96300018D02*
X147843771Y-96264176D01*
X130570024Y-73676850D02*
X130524876Y-73719895D01*
X127650022Y-84770903D02*
X127644111Y-84938969D01*
X148705511Y-82541120D02*
X148682195Y-82527650D01*
X148159801Y-95906790D02*
X148189606Y-95854369D01*
X129985664Y-87505980D02*
X130001968Y-87526674D01*
X149514020Y-82852607D02*
X149330762Y-82777675D01*
X148155906Y-73965043D02*
X148122092Y-73912298D01*
X130144111Y-81928422D02*
X130141977Y-81983199D01*
X130301016Y-95858794D02*
X130332319Y-95913234D01*
X150365281Y-83519509D02*
X150252962Y-83386369D01*
X130046095Y-82285668D02*
X130017520Y-82329925D01*
X131246137Y-96524162D02*
X131311196Y-96532430D01*
X148344650Y-81955914D02*
X148344114Y-81928422D01*
X148519601Y-82392000D02*
X148502520Y-82371916D01*
X131311196Y-96532430D02*
X131377215Y-96537450D01*
X127644111Y-84938969D02*
X127650022Y-85107035D01*
X130938097Y-73441296D02*
X130880512Y-73467329D01*
X150128819Y-86616949D02*
X150252962Y-86491570D01*
X148416972Y-87638523D02*
X148442173Y-87592199D01*
X129872128Y-87395572D02*
X129892838Y-87412216D01*
X128022449Y-83659635D02*
X127933776Y-83805970D01*
X150696326Y-84114161D02*
X150631300Y-83957737D01*
X148357245Y-82063565D02*
X148352562Y-82037049D01*
X128122945Y-83519509D02*
X128022449Y-83659635D01*
X129157463Y-87100263D02*
X129683529Y-87291740D01*
X147044113Y-96539141D02*
X147044113Y-96539141D01*
X130144111Y-95239138D02*
X130145803Y-95306036D01*
X148093292Y-96006899D02*
X148127672Y-95957657D01*
X147356523Y-96501359D02*
X147416007Y-96485168D01*
X148329135Y-74441162D02*
X148317702Y-74377145D01*
X129872157Y-82482346D02*
X129828721Y-82513341D01*
X128495371Y-86733791D02*
X128643160Y-86841320D01*
X130144111Y-95239138D02*
X130144111Y-95239138D01*
X150128819Y-83260989D02*
X149992854Y-83144147D01*
X130159090Y-95437114D02*
X130170523Y-95501132D01*
X150465777Y-86218304D02*
X150554450Y-86071969D01*
X148346260Y-87894603D02*
X148352583Y-87840764D01*
X129892838Y-87412216D02*
X129912855Y-87429595D01*
X148729436Y-82553735D02*
X148705511Y-82541120D01*
X129683529Y-82586198D02*
X129683529Y-82586198D01*
X150790911Y-84437876D02*
X150749530Y-84274466D01*
X130997132Y-73418019D02*
X130938097Y-73441296D01*
X149330762Y-87100263D02*
X149330762Y-87100263D01*
X130272307Y-95802740D02*
X130301016Y-95858794D01*
X148217015Y-95800468D02*
X148241955Y-95745159D01*
X148301243Y-95571504D02*
X148315587Y-95511284D01*
X130071253Y-87638530D02*
X130082547Y-87662411D01*
X148317702Y-74377145D02*
X148303186Y-74314250D01*
X147474323Y-96466268D02*
X147531400Y-96444731D01*
X148344114Y-74639138D02*
X148344114Y-74639138D01*
X148456005Y-82308070D02*
X148442131Y-82285669D01*
X130332319Y-95913234D02*
X130366133Y-95965979D01*
X130017520Y-82329925D02*
X129985705Y-82371913D01*
X130059083Y-87615120D02*
X130071253Y-87638530D01*
X147663767Y-73496041D02*
X147607713Y-73467332D01*
X130082547Y-87662411D02*
X130092947Y-87686740D01*
X129782698Y-87336820D02*
X129806011Y-87350286D01*
X149514020Y-87025332D02*
X149685454Y-86938759D01*
X131182119Y-96512730D02*
X131246137Y-96524162D01*
X127667757Y-85274325D02*
X127697314Y-85440063D01*
X150696326Y-85763777D02*
X150749530Y-85603472D01*
X148344114Y-87949371D02*
X148344114Y-87949371D01*
X130118617Y-87762172D02*
X130125275Y-87788051D01*
X150749530Y-85603472D02*
X150790911Y-85440063D01*
X148804697Y-82586214D02*
X148804697Y-82586214D01*
X148241955Y-95745159D02*
X148264355Y-95688514D01*
X130617194Y-96242281D02*
X130666304Y-96280875D01*
X130246273Y-74133115D02*
X130222996Y-74192151D01*
X148085847Y-73861330D02*
X148047254Y-73812220D01*
X130185039Y-95564027D02*
X130202557Y-95625717D01*
X148315587Y-95511284D02*
X148327101Y-95450017D01*
X148486216Y-82351217D02*
X148470705Y-82329927D01*
X130717273Y-73561154D02*
X130666304Y-73597398D01*
X130125275Y-87788051D02*
X130130956Y-87814258D01*
X128022449Y-86218304D02*
X128122945Y-86358429D01*
X130770018Y-73527340D02*
X130717273Y-73561154D01*
X147871031Y-73635996D02*
X147821920Y-73597403D01*
X130301016Y-74019476D02*
X130272307Y-74075530D01*
X131119225Y-73380064D02*
X131057535Y-73397581D01*
X130481831Y-96113228D02*
X130524876Y-96158376D01*
X129806011Y-87350286D02*
X129828698Y-87364583D01*
X130135642Y-87840768D02*
X130139318Y-87867559D01*
X149330762Y-82777675D02*
X149330762Y-82777675D01*
X147843771Y-96264176D02*
X147890144Y-96226203D01*
X148344114Y-74639138D02*
X148342422Y-74572241D01*
X147234339Y-96525323D02*
X147295943Y-96514768D01*
X148377226Y-87736637D02*
X148395279Y-87686733D01*
X148502520Y-82371916D02*
X148486216Y-82351217D01*
X147607713Y-73467332D02*
X147550128Y-73441298D01*
X128122945Y-86358429D02*
X128235264Y-86491570D01*
X148637457Y-82498243D02*
X148616068Y-82482353D01*
X131444113Y-73339137D02*
X131377215Y-73340828D01*
X128235264Y-86491570D02*
X128359406Y-86616949D01*
X148047254Y-73812220D02*
X148006394Y-73765049D01*
X130202557Y-74252554D02*
X130185039Y-74314245D01*
X148470747Y-87547952D02*
X148502561Y-87505975D01*
X130402378Y-73861323D02*
X130366133Y-73912291D01*
X148187209Y-74019484D02*
X148155906Y-73965043D01*
X148575370Y-87429592D02*
X148616097Y-87395569D01*
X147977364Y-96144152D02*
X148018065Y-96100219D01*
X127856926Y-83957737D02*
X127791899Y-84114161D01*
X131444113Y-73339137D02*
X131444113Y-73339137D01*
X148804697Y-87291740D02*
X149330762Y-87100263D01*
X147108352Y-96537582D02*
X147171785Y-96532952D01*
X148537442Y-82411444D02*
X148519601Y-82392000D01*
X149992854Y-86733791D02*
X150128819Y-86616949D01*
X148442173Y-87592199D02*
X148470747Y-87547952D01*
X128643160Y-86841320D02*
X128802771Y-86938759D01*
X150252962Y-86491570D02*
X150365281Y-86358429D01*
X148344114Y-81928422D02*
X148344114Y-81928422D01*
X128974205Y-82852607D02*
X128802771Y-82939180D01*
X129157463Y-82777675D02*
X129157463Y-82777675D01*
X130141966Y-87894606D02*
X130143569Y-87921884D01*
X129968585Y-87485901D02*
X129985664Y-87505980D01*
X147369000Y-73380065D02*
X147306106Y-73365548D01*
X128643160Y-83036619D02*
X128495371Y-83144147D01*
X130032178Y-87569811D02*
X130046052Y-87592206D01*
X147934699Y-96186171D02*
X147977364Y-96144152D01*
X148753953Y-82565472D02*
X148729436Y-82553735D01*
X147718207Y-73527344D02*
X147663767Y-73496041D01*
X127791899Y-84114161D02*
X127738695Y-84274466D01*
X130159090Y-74441159D02*
X130150823Y-74506219D01*
X127738695Y-84274466D02*
X127697314Y-84437876D01*
X148006394Y-73765049D02*
X147963349Y-73719901D01*
X130110999Y-87736644D02*
X130118617Y-87762172D01*
X148502561Y-87505975D02*
X148537480Y-87466457D01*
X147821920Y-73597403D02*
X147770952Y-73561158D01*
X148753961Y-87312475D02*
X148804697Y-87291740D01*
X130880512Y-73467329D02*
X130824458Y-73496038D01*
X147242088Y-73354116D02*
X147177029Y-73345849D01*
X148395240Y-82191113D02*
X148385753Y-82166354D01*
X150838203Y-84770903D02*
X150820469Y-84603613D01*
X148348891Y-82010252D02*
X148346248Y-81983199D01*
X148352583Y-87840764D02*
X148362950Y-87788045D01*
X130144111Y-87949371D02*
X130144111Y-87949371D01*
X130141977Y-81983199D02*
X130135663Y-82037049D01*
X148385753Y-82166354D02*
X148377192Y-82141197D01*
X127791899Y-85763777D02*
X127856926Y-85920201D01*
X129157463Y-82777675D02*
X128974205Y-82852607D01*
X130666304Y-96280875D02*
X130717273Y-96317119D01*
X148377192Y-82141197D02*
X148369577Y-82115663D01*
X148537480Y-87466457D02*
X148575370Y-87429592D01*
X148395279Y-87686733D02*
X148416972Y-87638523D01*
X148804697Y-82586214D02*
X148779045Y-82576306D01*
X147171785Y-96532952D02*
X147234339Y-96525323D01*
X130938097Y-96436980D02*
X130997132Y-96460257D01*
X130717273Y-96317119D02*
X130770018Y-96350934D01*
X130202557Y-95625717D02*
X130222996Y-95686120D01*
X131444113Y-96539141D02*
X147044113Y-96539141D01*
X147587164Y-96420629D02*
X147641544Y-96394034D01*
X130145803Y-74572239D02*
X130144111Y-74639138D01*
X147641544Y-96394034D02*
X147694467Y-96365019D01*
X148303186Y-74314250D02*
X148285668Y-74252560D01*
X127856926Y-85920201D02*
X127933776Y-86071969D01*
X147430690Y-73397583D02*
X147369000Y-73380065D01*
X148241952Y-74133122D02*
X148215918Y-74075537D01*
X150252962Y-83386369D02*
X150128819Y-83260989D01*
X148429101Y-82262749D02*
X148416931Y-82239334D01*
X129932163Y-87447685D02*
X129950745Y-87466462D01*
X130666304Y-73597398D02*
X130617194Y-73635991D01*
X130143569Y-87921884D02*
X130144111Y-87949371D01*
X147491093Y-73418021D02*
X147430690Y-73397583D01*
X130092947Y-87686740D02*
X130102436Y-87711492D01*
X150631300Y-85920201D02*
X150696326Y-85763777D01*
X129950784Y-82411441D02*
X129912890Y-82448315D01*
X130145803Y-95306036D02*
X130150823Y-95372055D01*
X130130956Y-87814258D02*
X130135642Y-87840768D01*
X129683529Y-87291740D02*
X129683529Y-87291740D01*
X147306106Y-73365548D02*
X147242088Y-73354116D01*
X130144111Y-81928422D02*
X130144111Y-81928422D01*
X128802771Y-82939180D02*
X128643160Y-83036619D01*
X148342422Y-74572241D02*
X148337402Y-74506222D01*
X130071294Y-82239333D02*
X130046095Y-82285668D01*
X130440971Y-96066058D02*
X130481831Y-96113228D01*
X147295943Y-96514768D02*
X147356523Y-96501359D01*
X130222996Y-95686120D02*
X130246273Y-95745155D01*
X130570024Y-96201421D02*
X130617194Y-96242281D01*
X129683529Y-87291740D02*
X129709176Y-87301645D01*
X149330762Y-82777675D02*
X148804697Y-82586214D01*
X148659504Y-82513350D02*
X148637457Y-82498243D01*
X131444113Y-96539141D02*
X131444113Y-96539141D01*
X150554450Y-86071969D02*
X150631300Y-85920201D01*
X149845066Y-83036619D02*
X149685454Y-82939180D01*
X148122092Y-73912298D02*
X148085847Y-73861330D01*
X147531400Y-96444731D02*
X147587164Y-96420629D01*
X150820469Y-85274325D02*
X150838203Y-85107035D01*
X147177029Y-73345849D02*
X147111010Y-73340828D01*
X128495371Y-83144147D02*
X128359406Y-83260989D01*
X129157463Y-87100263D02*
X129157463Y-87100263D01*
X148215918Y-74075537D02*
X148187209Y-74019484D01*
X148682195Y-82527650D02*
X148659504Y-82513350D01*
X147111010Y-73340828D02*
X147044113Y-73339137D01*
X148327101Y-95450017D02*
X148335714Y-95387775D01*
X128802771Y-86938759D02*
X128974205Y-87025332D01*
X148344114Y-87949371D02*
X148346260Y-87894603D01*
X148265229Y-74192157D02*
X148241952Y-74133122D01*
X129828721Y-82513341D02*
X129782715Y-82541109D01*
X130125303Y-82089778D02*
X130111033Y-82141197D01*
X131377215Y-73340828D02*
X131311196Y-73345848D01*
X130102436Y-87711492D02*
X130110999Y-87736644D01*
X130880512Y-96410946D02*
X130938097Y-96436980D01*
X130246273Y-95745155D02*
X130272307Y-95802740D01*
X147694467Y-96365019D02*
X147745860Y-96333656D01*
X148659528Y-87364581D02*
X148705527Y-87336820D01*
X147044113Y-73339137D02*
X147044113Y-73339137D01*
X148405639Y-82215447D02*
X148395240Y-82191113D01*
D11*
%TO.C,U1*%
X135116000Y-113105000D02*
X135116000Y-112630000D01*
X135116000Y-115235000D02*
X135116000Y-115710000D01*
X132036000Y-112630000D02*
X132511000Y-112630000D01*
X135116000Y-115710000D02*
X134641000Y-115710000D01*
X135116000Y-112630000D02*
X134641000Y-112630000D01*
X132036000Y-113105000D02*
X132036000Y-112630000D01*
X132036000Y-115237000D02*
X132036000Y-115710000D01*
%TO.C,J5*%
X142808000Y-101092000D02*
X142808000Y-101152000D01*
X140148000Y-98492000D02*
X141478000Y-98492000D01*
X140148000Y-101092000D02*
X142808000Y-101092000D01*
X140148000Y-101092000D02*
X140148000Y-101152000D01*
X140148000Y-99822000D02*
X140148000Y-98492000D01*
X140148000Y-101152000D02*
X142808000Y-101152000D01*
%TO.C,C2*%
X137543000Y-114326580D02*
X137543000Y-114045420D01*
X136523000Y-114326580D02*
X136523000Y-114045420D01*
%TO.C,FB2*%
X131111258Y-109078500D02*
X130636742Y-109078500D01*
X131111258Y-110123500D02*
X130636742Y-110123500D01*
%TO.C,J2*%
X144974000Y-116646000D02*
X144974000Y-115316000D01*
X147574000Y-116646000D02*
X147574000Y-113986000D01*
X147574000Y-116646000D02*
X150174000Y-116646000D01*
X150174000Y-116646000D02*
X150174000Y-113986000D01*
X146304000Y-116646000D02*
X144974000Y-116646000D01*
X147574000Y-113986000D02*
X150174000Y-113986000D01*
%TO.C,C3*%
X130685000Y-111886420D02*
X130685000Y-112167580D01*
X129665000Y-111886420D02*
X129665000Y-112167580D01*
%TO.C,FB1*%
X134318742Y-109078500D02*
X134793258Y-109078500D01*
X134318742Y-110123500D02*
X134793258Y-110123500D01*
%TO.C,J8*%
X146244000Y-101087000D02*
X146244000Y-99757000D01*
X146244000Y-102357000D02*
X148904000Y-102357000D01*
X146244000Y-99757000D02*
X147574000Y-99757000D01*
X148904000Y-102357000D02*
X148904000Y-104957000D01*
X146244000Y-104957000D02*
X148904000Y-104957000D01*
X146244000Y-102357000D02*
X146244000Y-104957000D01*
%TO.C,J4*%
X147574000Y-109026000D02*
X147574000Y-106366000D01*
X146304000Y-109026000D02*
X144974000Y-109026000D01*
X144974000Y-109026000D02*
X144974000Y-107696000D01*
X147574000Y-109026000D02*
X150174000Y-109026000D01*
X150174000Y-109026000D02*
X150174000Y-106366000D01*
X147574000Y-106366000D02*
X150174000Y-106366000D01*
%TD*%
M02*
