M48
; DRILL file {KiCad (6.0.7)} date Mon Nov 28 20:01:00 2022
; FORMAT={-:-/ absolute / inch / decimal}
; #@! TF.CreationDate,2022-11-28T20:01:00-08:00
; #@! TF.GenerationSoftware,Kicad,Pcbnew,(6.0.7)
; #@! TF.FileFunction,Plated,1,2,PTH
FMAT,2
INCH
; #@! TA.AperFunction,Plated,PTH,ViaDrill
T1C0.0157
; #@! TA.AperFunction,Plated,PTH,ComponentDrill
T2C0.0394
; #@! TA.AperFunction,Plated,PTH,ComponentDrill
T3C0.0472
%
G90
G05
T1
X5.115Y-4.55
X5.2485Y-4.4844
X5.39Y-4.39
X5.475Y-4.39
T2
X5.16Y-4.69
X5.26Y-4.69
X5.36Y-4.69
X5.46Y-4.69
X5.56Y-4.69
X5.57Y-3.93
X5.57Y-4.08
X5.66Y-4.69
X5.76Y-4.24
X5.76Y-4.39
X5.76Y-4.54
X5.76Y-4.69
X5.81Y-3.9798
X5.81Y-4.0798
X5.86Y-4.24
X5.86Y-4.39
X5.86Y-4.54
T3
X5.27Y-3.95
X5.27Y-4.0878
T0
M30
