%TF.GenerationSoftware,KiCad,Pcbnew,(6.0.7)*%
%TF.CreationDate,2022-11-28T20:00:57-08:00*%
%TF.ProjectId,max98357-amp,6d617839-3833-4353-972d-616d702e6b69,rev?*%
%TF.SameCoordinates,Original*%
%TF.FileFunction,Soldermask,Top*%
%TF.FilePolarity,Negative*%
%FSLAX46Y46*%
G04 Gerber Fmt 4.6, Leading zero omitted, Abs format (unit mm)*
G04 Created by KiCad (PCBNEW (6.0.7)) date 2022-11-28 20:00:57*
%MOMM*%
%LPD*%
G01*
G04 APERTURE LIST*
G04 Aperture macros list*
%AMRoundRect*
0 Rectangle with rounded corners*
0 $1 Rounding radius*
0 $2 $3 $4 $5 $6 $7 $8 $9 X,Y pos of 4 corners*
0 Add a 4 corners polygon primitive as box body*
4,1,4,$2,$3,$4,$5,$6,$7,$8,$9,$2,$3,0*
0 Add four circle primitives for the rounded corners*
1,1,$1+$1,$2,$3*
1,1,$1+$1,$4,$5*
1,1,$1+$1,$6,$7*
1,1,$1+$1,$8,$9*
0 Add four rect primitives between the rounded corners*
20,1,$1+$1,$2,$3,$4,$5,0*
20,1,$1+$1,$4,$5,$6,$7,0*
20,1,$1+$1,$6,$7,$8,$9,0*
20,1,$1+$1,$8,$9,$2,$3,0*%
G04 Aperture macros list end*
%ADD10R,1.700000X1.700000*%
%ADD11O,1.700000X1.700000*%
%ADD12RoundRect,0.225000X-0.225000X-0.250000X0.225000X-0.250000X0.225000X0.250000X-0.225000X0.250000X0*%
%ADD13RoundRect,0.200000X0.275000X-0.200000X0.275000X0.200000X-0.275000X0.200000X-0.275000X-0.200000X0*%
%ADD14RoundRect,0.225000X0.250000X-0.225000X0.250000X0.225000X-0.250000X0.225000X-0.250000X-0.225000X0*%
%ADD15R,2.400000X2.400000*%
%ADD16C,2.400000*%
%ADD17C,1.700000*%
%ADD18RoundRect,0.400000X-2.100000X-0.400000X2.100000X-0.400000X2.100000X0.400000X-2.100000X0.400000X0*%
%ADD19RoundRect,0.320000X-2.180000X-0.480000X2.180000X-0.480000X2.180000X0.480000X-2.180000X0.480000X0*%
%ADD20RoundRect,0.075000X0.075000X-0.325000X0.075000X0.325000X-0.075000X0.325000X-0.075000X-0.325000X0*%
%ADD21RoundRect,0.075000X0.325000X-0.075000X0.325000X0.075000X-0.325000X0.075000X-0.325000X-0.075000X0*%
%ADD22R,1.230000X1.230000*%
%ADD23RoundRect,0.200000X0.200000X0.275000X-0.200000X0.275000X-0.200000X-0.275000X0.200000X-0.275000X0*%
%ADD24RoundRect,0.225000X-0.250000X0.225000X-0.250000X-0.225000X0.250000X-0.225000X0.250000X0.225000X0*%
%ADD25RoundRect,0.200000X-0.200000X-0.275000X0.200000X-0.275000X0.200000X0.275000X-0.200000X0.275000X0*%
G04 APERTURE END LIST*
D10*
%TO.C,J1*%
X146304000Y-119126000D03*
D11*
X143764000Y-119126000D03*
X141224000Y-119126000D03*
X138684000Y-119126000D03*
X136144000Y-119126000D03*
X133604000Y-119126000D03*
X131064000Y-119126000D03*
%TD*%
D12*
%TO.C,C4*%
X137414000Y-109601000D03*
X138964000Y-109601000D03*
%TD*%
D10*
%TO.C,J6*%
X141478000Y-103632000D03*
%TD*%
D13*
%TO.C,R2*%
X141478000Y-111252000D03*
X141478000Y-109602000D03*
%TD*%
D14*
%TO.C,C1*%
X139065000Y-114935000D03*
X139065000Y-113385000D03*
%TD*%
D10*
%TO.C,J3*%
X146304000Y-111506000D03*
D11*
X148844000Y-111506000D03*
%TD*%
D15*
%TO.C,J7*%
X133858000Y-100330000D03*
D16*
X133858000Y-103830000D03*
%TD*%
D13*
%TO.C,R1*%
X141478000Y-116078000D03*
X141478000Y-114428000D03*
%TD*%
D17*
%TO.C,S1*%
X148557000Y-84931992D03*
X129964200Y-84931992D03*
D18*
X146674000Y-76632000D03*
D19*
X146674000Y-93232000D03*
%TD*%
D20*
%TO.C,U1*%
X132811000Y-115595000D03*
X133311000Y-115595000D03*
X133811000Y-115595000D03*
X134341000Y-115595000D03*
D21*
X135001000Y-114935000D03*
X135001000Y-114435000D03*
X135001000Y-113935000D03*
X135001000Y-113405000D03*
D20*
X134341000Y-112745000D03*
X133811000Y-112745000D03*
X133311000Y-112745000D03*
X132811000Y-112745000D03*
D21*
X132151000Y-113405000D03*
X132151000Y-113935000D03*
X132151000Y-114435000D03*
X132151000Y-114935000D03*
D22*
X133576000Y-114170000D03*
%TD*%
D10*
%TO.C,J5*%
X141478000Y-99822000D03*
%TD*%
D14*
%TO.C,C2*%
X137033000Y-114961000D03*
X137033000Y-113411000D03*
%TD*%
D23*
%TO.C,FB2*%
X131699000Y-109601000D03*
X130049000Y-109601000D03*
%TD*%
D10*
%TO.C,J2*%
X146304000Y-115316000D03*
D11*
X148844000Y-115316000D03*
%TD*%
D24*
%TO.C,C3*%
X130175000Y-111252000D03*
X130175000Y-112802000D03*
%TD*%
D25*
%TO.C,FB1*%
X133731000Y-109601000D03*
X135381000Y-109601000D03*
%TD*%
D10*
%TO.C,J8*%
X147574000Y-101087000D03*
D11*
X147574000Y-103627000D03*
%TD*%
D10*
%TO.C,J4*%
X146304000Y-107696000D03*
D11*
X148844000Y-107696000D03*
%TD*%
M02*
