%TF.GenerationSoftware,KiCad,Pcbnew,7.0.2*%
%TF.CreationDate,2023-07-05T23:29:04-07:00*%
%TF.ProjectId,555-timer-pwm-with-digipot,3535352d-7469-46d6-9572-2d70776d2d77,rev?*%
%TF.SameCoordinates,Original*%
%TF.FileFunction,Legend,Top*%
%TF.FilePolarity,Positive*%
%FSLAX46Y46*%
G04 Gerber Fmt 4.6, Leading zero omitted, Abs format (unit mm)*
G04 Created by KiCad (PCBNEW 7.0.2) date 2023-07-05 23:29:04*
%MOMM*%
%LPD*%
G01*
G04 APERTURE LIST*
G04 Aperture macros list*
%AMRoundRect*
0 Rectangle with rounded corners*
0 $1 Rounding radius*
0 $2 $3 $4 $5 $6 $7 $8 $9 X,Y pos of 4 corners*
0 Add a 4 corners polygon primitive as box body*
4,1,4,$2,$3,$4,$5,$6,$7,$8,$9,$2,$3,0*
0 Add four circle primitives for the rounded corners*
1,1,$1+$1,$2,$3*
1,1,$1+$1,$4,$5*
1,1,$1+$1,$6,$7*
1,1,$1+$1,$8,$9*
0 Add four rect primitives between the rounded corners*
20,1,$1+$1,$2,$3,$4,$5,0*
20,1,$1+$1,$4,$5,$6,$7,0*
20,1,$1+$1,$6,$7,$8,$9,0*
20,1,$1+$1,$8,$9,$2,$3,0*%
%AMFreePoly0*
4,1,6,1.000000,0.000000,0.500000,-0.750000,-0.500000,-0.750000,-0.500000,0.750000,0.500000,0.750000,1.000000,0.000000,1.000000,0.000000,$1*%
%AMFreePoly1*
4,1,6,0.500000,-0.750000,-0.650000,-0.750000,-0.150000,0.000000,-0.650000,0.750000,0.500000,0.750000,0.500000,-0.750000,0.500000,-0.750000,$1*%
G04 Aperture macros list end*
%ADD10C,0.150000*%
%ADD11C,0.120000*%
%ADD12RoundRect,0.250000X-0.262500X-0.450000X0.262500X-0.450000X0.262500X0.450000X-0.262500X0.450000X0*%
%ADD13R,1.700000X1.700000*%
%ADD14O,1.700000X1.700000*%
%ADD15FreePoly0,0.000000*%
%ADD16FreePoly1,0.000000*%
%ADD17C,2.000000*%
%ADD18RoundRect,0.250000X-0.450000X0.262500X-0.450000X-0.262500X0.450000X-0.262500X0.450000X0.262500X0*%
%ADD19RoundRect,0.225000X0.225000X0.375000X-0.225000X0.375000X-0.225000X-0.375000X0.225000X-0.375000X0*%
%ADD20RoundRect,0.225000X-0.375000X0.225000X-0.375000X-0.225000X0.375000X-0.225000X0.375000X0.225000X0*%
%ADD21RoundRect,0.250000X0.262500X0.450000X-0.262500X0.450000X-0.262500X-0.450000X0.262500X-0.450000X0*%
%ADD22RoundRect,0.250000X0.475000X-0.250000X0.475000X0.250000X-0.475000X0.250000X-0.475000X-0.250000X0*%
%ADD23RoundRect,0.150000X0.625000X0.150000X-0.625000X0.150000X-0.625000X-0.150000X0.625000X-0.150000X0*%
%ADD24RoundRect,0.250000X0.250000X0.475000X-0.250000X0.475000X-0.250000X-0.475000X0.250000X-0.475000X0*%
%ADD25RoundRect,0.250000X-0.475000X0.250000X-0.475000X-0.250000X0.475000X-0.250000X0.475000X0.250000X0*%
%ADD26R,1.400000X0.300000*%
G04 APERTURE END LIST*
D10*
X134360142Y-97255286D02*
X134360142Y-97426714D01*
X134360142Y-97426714D02*
X134317285Y-97512429D01*
X134317285Y-97512429D02*
X134231571Y-97598143D01*
X134231571Y-97598143D02*
X134060142Y-97641000D01*
X134060142Y-97641000D02*
X133760142Y-97641000D01*
X133760142Y-97641000D02*
X133588714Y-97598143D01*
X133588714Y-97598143D02*
X133503000Y-97512429D01*
X133503000Y-97512429D02*
X133460142Y-97426714D01*
X133460142Y-97426714D02*
X133460142Y-97255286D01*
X133460142Y-97255286D02*
X133503000Y-97169572D01*
X133503000Y-97169572D02*
X133588714Y-97083857D01*
X133588714Y-97083857D02*
X133760142Y-97041000D01*
X133760142Y-97041000D02*
X134060142Y-97041000D01*
X134060142Y-97041000D02*
X134231571Y-97083857D01*
X134231571Y-97083857D02*
X134317285Y-97169572D01*
X134317285Y-97169572D02*
X134360142Y-97255286D01*
X134360142Y-98026714D02*
X133631571Y-98026714D01*
X133631571Y-98026714D02*
X133545857Y-98069571D01*
X133545857Y-98069571D02*
X133503000Y-98112429D01*
X133503000Y-98112429D02*
X133460142Y-98198143D01*
X133460142Y-98198143D02*
X133460142Y-98369571D01*
X133460142Y-98369571D02*
X133503000Y-98455286D01*
X133503000Y-98455286D02*
X133545857Y-98498143D01*
X133545857Y-98498143D02*
X133631571Y-98541000D01*
X133631571Y-98541000D02*
X134360142Y-98541000D01*
X134360142Y-98841000D02*
X134360142Y-99355286D01*
X133460142Y-99098143D02*
X134360142Y-99098143D01*
X134422142Y-87122285D02*
X133522142Y-87422285D01*
X133522142Y-87422285D02*
X134422142Y-87722285D01*
X133607857Y-88536571D02*
X133565000Y-88493714D01*
X133565000Y-88493714D02*
X133522142Y-88365142D01*
X133522142Y-88365142D02*
X133522142Y-88279428D01*
X133522142Y-88279428D02*
X133565000Y-88150857D01*
X133565000Y-88150857D02*
X133650714Y-88065142D01*
X133650714Y-88065142D02*
X133736428Y-88022285D01*
X133736428Y-88022285D02*
X133907857Y-87979428D01*
X133907857Y-87979428D02*
X134036428Y-87979428D01*
X134036428Y-87979428D02*
X134207857Y-88022285D01*
X134207857Y-88022285D02*
X134293571Y-88065142D01*
X134293571Y-88065142D02*
X134379285Y-88150857D01*
X134379285Y-88150857D02*
X134422142Y-88279428D01*
X134422142Y-88279428D02*
X134422142Y-88365142D01*
X134422142Y-88365142D02*
X134379285Y-88493714D01*
X134379285Y-88493714D02*
X134336428Y-88536571D01*
X133607857Y-89436571D02*
X133565000Y-89393714D01*
X133565000Y-89393714D02*
X133522142Y-89265142D01*
X133522142Y-89265142D02*
X133522142Y-89179428D01*
X133522142Y-89179428D02*
X133565000Y-89050857D01*
X133565000Y-89050857D02*
X133650714Y-88965142D01*
X133650714Y-88965142D02*
X133736428Y-88922285D01*
X133736428Y-88922285D02*
X133907857Y-88879428D01*
X133907857Y-88879428D02*
X134036428Y-88879428D01*
X134036428Y-88879428D02*
X134207857Y-88922285D01*
X134207857Y-88922285D02*
X134293571Y-88965142D01*
X134293571Y-88965142D02*
X134379285Y-89050857D01*
X134379285Y-89050857D02*
X134422142Y-89179428D01*
X134422142Y-89179428D02*
X134422142Y-89265142D01*
X134422142Y-89265142D02*
X134379285Y-89393714D01*
X134379285Y-89393714D02*
X134336428Y-89436571D01*
X137567000Y-94586714D02*
X137524142Y-94715286D01*
X137524142Y-94715286D02*
X137524142Y-94929571D01*
X137524142Y-94929571D02*
X137567000Y-95015286D01*
X137567000Y-95015286D02*
X137609857Y-95058143D01*
X137609857Y-95058143D02*
X137695571Y-95101000D01*
X137695571Y-95101000D02*
X137781285Y-95101000D01*
X137781285Y-95101000D02*
X137867000Y-95058143D01*
X137867000Y-95058143D02*
X137909857Y-95015286D01*
X137909857Y-95015286D02*
X137952714Y-94929571D01*
X137952714Y-94929571D02*
X137995571Y-94758143D01*
X137995571Y-94758143D02*
X138038428Y-94672428D01*
X138038428Y-94672428D02*
X138081285Y-94629571D01*
X138081285Y-94629571D02*
X138167000Y-94586714D01*
X138167000Y-94586714D02*
X138252714Y-94586714D01*
X138252714Y-94586714D02*
X138338428Y-94629571D01*
X138338428Y-94629571D02*
X138381285Y-94672428D01*
X138381285Y-94672428D02*
X138424142Y-94758143D01*
X138424142Y-94758143D02*
X138424142Y-94972428D01*
X138424142Y-94972428D02*
X138381285Y-95101000D01*
X137609857Y-96001000D02*
X137567000Y-95958143D01*
X137567000Y-95958143D02*
X137524142Y-95829571D01*
X137524142Y-95829571D02*
X137524142Y-95743857D01*
X137524142Y-95743857D02*
X137567000Y-95615286D01*
X137567000Y-95615286D02*
X137652714Y-95529571D01*
X137652714Y-95529571D02*
X137738428Y-95486714D01*
X137738428Y-95486714D02*
X137909857Y-95443857D01*
X137909857Y-95443857D02*
X138038428Y-95443857D01*
X138038428Y-95443857D02*
X138209857Y-95486714D01*
X138209857Y-95486714D02*
X138295571Y-95529571D01*
X138295571Y-95529571D02*
X138381285Y-95615286D01*
X138381285Y-95615286D02*
X138424142Y-95743857D01*
X138424142Y-95743857D02*
X138424142Y-95829571D01*
X138424142Y-95829571D02*
X138381285Y-95958143D01*
X138381285Y-95958143D02*
X138338428Y-96001000D01*
X137524142Y-96815286D02*
X137524142Y-96386714D01*
X137524142Y-96386714D02*
X138424142Y-96386714D01*
X133503000Y-92003856D02*
X133460142Y-92132428D01*
X133460142Y-92132428D02*
X133460142Y-92346713D01*
X133460142Y-92346713D02*
X133503000Y-92432428D01*
X133503000Y-92432428D02*
X133545857Y-92475285D01*
X133545857Y-92475285D02*
X133631571Y-92518142D01*
X133631571Y-92518142D02*
X133717285Y-92518142D01*
X133717285Y-92518142D02*
X133803000Y-92475285D01*
X133803000Y-92475285D02*
X133845857Y-92432428D01*
X133845857Y-92432428D02*
X133888714Y-92346713D01*
X133888714Y-92346713D02*
X133931571Y-92175285D01*
X133931571Y-92175285D02*
X133974428Y-92089570D01*
X133974428Y-92089570D02*
X134017285Y-92046713D01*
X134017285Y-92046713D02*
X134103000Y-92003856D01*
X134103000Y-92003856D02*
X134188714Y-92003856D01*
X134188714Y-92003856D02*
X134274428Y-92046713D01*
X134274428Y-92046713D02*
X134317285Y-92089570D01*
X134317285Y-92089570D02*
X134360142Y-92175285D01*
X134360142Y-92175285D02*
X134360142Y-92389570D01*
X134360142Y-92389570D02*
X134317285Y-92518142D01*
X133460142Y-92903856D02*
X134360142Y-92903856D01*
X134360142Y-92903856D02*
X134360142Y-93118142D01*
X134360142Y-93118142D02*
X134317285Y-93246713D01*
X134317285Y-93246713D02*
X134231571Y-93332428D01*
X134231571Y-93332428D02*
X134145857Y-93375285D01*
X134145857Y-93375285D02*
X133974428Y-93418142D01*
X133974428Y-93418142D02*
X133845857Y-93418142D01*
X133845857Y-93418142D02*
X133674428Y-93375285D01*
X133674428Y-93375285D02*
X133588714Y-93332428D01*
X133588714Y-93332428D02*
X133503000Y-93246713D01*
X133503000Y-93246713D02*
X133460142Y-93118142D01*
X133460142Y-93118142D02*
X133460142Y-92903856D01*
X133717285Y-93760999D02*
X133717285Y-94189571D01*
X133460142Y-93675285D02*
X134360142Y-93975285D01*
X134360142Y-93975285D02*
X133460142Y-94275285D01*
X138381285Y-89763857D02*
X138424142Y-89678143D01*
X138424142Y-89678143D02*
X138424142Y-89549571D01*
X138424142Y-89549571D02*
X138381285Y-89421000D01*
X138381285Y-89421000D02*
X138295571Y-89335285D01*
X138295571Y-89335285D02*
X138209857Y-89292428D01*
X138209857Y-89292428D02*
X138038428Y-89249571D01*
X138038428Y-89249571D02*
X137909857Y-89249571D01*
X137909857Y-89249571D02*
X137738428Y-89292428D01*
X137738428Y-89292428D02*
X137652714Y-89335285D01*
X137652714Y-89335285D02*
X137567000Y-89421000D01*
X137567000Y-89421000D02*
X137524142Y-89549571D01*
X137524142Y-89549571D02*
X137524142Y-89635285D01*
X137524142Y-89635285D02*
X137567000Y-89763857D01*
X137567000Y-89763857D02*
X137609857Y-89806714D01*
X137609857Y-89806714D02*
X137909857Y-89806714D01*
X137909857Y-89806714D02*
X137909857Y-89635285D01*
X137524142Y-90192428D02*
X138424142Y-90192428D01*
X138424142Y-90192428D02*
X137524142Y-90706714D01*
X137524142Y-90706714D02*
X138424142Y-90706714D01*
X137524142Y-91135285D02*
X138424142Y-91135285D01*
X138424142Y-91135285D02*
X138424142Y-91349571D01*
X138424142Y-91349571D02*
X138381285Y-91478142D01*
X138381285Y-91478142D02*
X138295571Y-91563857D01*
X138295571Y-91563857D02*
X138209857Y-91606714D01*
X138209857Y-91606714D02*
X138038428Y-91649571D01*
X138038428Y-91649571D02*
X137909857Y-91649571D01*
X137909857Y-91649571D02*
X137738428Y-91606714D01*
X137738428Y-91606714D02*
X137652714Y-91563857D01*
X137652714Y-91563857D02*
X137567000Y-91478142D01*
X137567000Y-91478142D02*
X137524142Y-91349571D01*
X137524142Y-91349571D02*
X137524142Y-91135285D01*
%TO.C,R5*%
X146116333Y-95258619D02*
X145783000Y-94782428D01*
X145544905Y-95258619D02*
X145544905Y-94258619D01*
X145544905Y-94258619D02*
X145925857Y-94258619D01*
X145925857Y-94258619D02*
X146021095Y-94306238D01*
X146021095Y-94306238D02*
X146068714Y-94353857D01*
X146068714Y-94353857D02*
X146116333Y-94449095D01*
X146116333Y-94449095D02*
X146116333Y-94591952D01*
X146116333Y-94591952D02*
X146068714Y-94687190D01*
X146068714Y-94687190D02*
X146021095Y-94734809D01*
X146021095Y-94734809D02*
X145925857Y-94782428D01*
X145925857Y-94782428D02*
X145544905Y-94782428D01*
X147021095Y-94258619D02*
X146544905Y-94258619D01*
X146544905Y-94258619D02*
X146497286Y-94734809D01*
X146497286Y-94734809D02*
X146544905Y-94687190D01*
X146544905Y-94687190D02*
X146640143Y-94639571D01*
X146640143Y-94639571D02*
X146878238Y-94639571D01*
X146878238Y-94639571D02*
X146973476Y-94687190D01*
X146973476Y-94687190D02*
X147021095Y-94734809D01*
X147021095Y-94734809D02*
X147068714Y-94830047D01*
X147068714Y-94830047D02*
X147068714Y-95068142D01*
X147068714Y-95068142D02*
X147021095Y-95163380D01*
X147021095Y-95163380D02*
X146973476Y-95211000D01*
X146973476Y-95211000D02*
X146878238Y-95258619D01*
X146878238Y-95258619D02*
X146640143Y-95258619D01*
X146640143Y-95258619D02*
X146544905Y-95211000D01*
X146544905Y-95211000D02*
X146497286Y-95163380D01*
%TO.C,J1*%
X137964666Y-87629619D02*
X137964666Y-88343904D01*
X137964666Y-88343904D02*
X137917047Y-88486761D01*
X137917047Y-88486761D02*
X137821809Y-88582000D01*
X137821809Y-88582000D02*
X137678952Y-88629619D01*
X137678952Y-88629619D02*
X137583714Y-88629619D01*
X138964666Y-88629619D02*
X138393238Y-88629619D01*
X138678952Y-88629619D02*
X138678952Y-87629619D01*
X138678952Y-87629619D02*
X138583714Y-87772476D01*
X138583714Y-87772476D02*
X138488476Y-87867714D01*
X138488476Y-87867714D02*
X138393238Y-87915333D01*
%TO.C,A1*%
X139365714Y-92724904D02*
X139841904Y-92724904D01*
X139270476Y-93010619D02*
X139603809Y-92010619D01*
X139603809Y-92010619D02*
X139937142Y-93010619D01*
X140794285Y-93010619D02*
X140222857Y-93010619D01*
X140508571Y-93010619D02*
X140508571Y-92010619D01*
X140508571Y-92010619D02*
X140413333Y-92153476D01*
X140413333Y-92153476D02*
X140318095Y-92248714D01*
X140318095Y-92248714D02*
X140222857Y-92296333D01*
%TO.C,R3*%
X146603333Y-86739619D02*
X146270000Y-86263428D01*
X146031905Y-86739619D02*
X146031905Y-85739619D01*
X146031905Y-85739619D02*
X146412857Y-85739619D01*
X146412857Y-85739619D02*
X146508095Y-85787238D01*
X146508095Y-85787238D02*
X146555714Y-85834857D01*
X146555714Y-85834857D02*
X146603333Y-85930095D01*
X146603333Y-85930095D02*
X146603333Y-86072952D01*
X146603333Y-86072952D02*
X146555714Y-86168190D01*
X146555714Y-86168190D02*
X146508095Y-86215809D01*
X146508095Y-86215809D02*
X146412857Y-86263428D01*
X146412857Y-86263428D02*
X146031905Y-86263428D01*
X146936667Y-85739619D02*
X147555714Y-85739619D01*
X147555714Y-85739619D02*
X147222381Y-86120571D01*
X147222381Y-86120571D02*
X147365238Y-86120571D01*
X147365238Y-86120571D02*
X147460476Y-86168190D01*
X147460476Y-86168190D02*
X147508095Y-86215809D01*
X147508095Y-86215809D02*
X147555714Y-86311047D01*
X147555714Y-86311047D02*
X147555714Y-86549142D01*
X147555714Y-86549142D02*
X147508095Y-86644380D01*
X147508095Y-86644380D02*
X147460476Y-86692000D01*
X147460476Y-86692000D02*
X147365238Y-86739619D01*
X147365238Y-86739619D02*
X147079524Y-86739619D01*
X147079524Y-86739619D02*
X146984286Y-86692000D01*
X146984286Y-86692000D02*
X146936667Y-86644380D01*
%TO.C,RL*%
X157256761Y-95255619D02*
X156923428Y-94779428D01*
X156685333Y-95255619D02*
X156685333Y-94255619D01*
X156685333Y-94255619D02*
X157066285Y-94255619D01*
X157066285Y-94255619D02*
X157161523Y-94303238D01*
X157161523Y-94303238D02*
X157209142Y-94350857D01*
X157209142Y-94350857D02*
X157256761Y-94446095D01*
X157256761Y-94446095D02*
X157256761Y-94588952D01*
X157256761Y-94588952D02*
X157209142Y-94684190D01*
X157209142Y-94684190D02*
X157161523Y-94731809D01*
X157161523Y-94731809D02*
X157066285Y-94779428D01*
X157066285Y-94779428D02*
X156685333Y-94779428D01*
X158161523Y-95255619D02*
X157685333Y-95255619D01*
X157685333Y-95255619D02*
X157685333Y-94255619D01*
%TO.C,R1*%
X153841333Y-99507619D02*
X153508000Y-99031428D01*
X153269905Y-99507619D02*
X153269905Y-98507619D01*
X153269905Y-98507619D02*
X153650857Y-98507619D01*
X153650857Y-98507619D02*
X153746095Y-98555238D01*
X153746095Y-98555238D02*
X153793714Y-98602857D01*
X153793714Y-98602857D02*
X153841333Y-98698095D01*
X153841333Y-98698095D02*
X153841333Y-98840952D01*
X153841333Y-98840952D02*
X153793714Y-98936190D01*
X153793714Y-98936190D02*
X153746095Y-98983809D01*
X153746095Y-98983809D02*
X153650857Y-99031428D01*
X153650857Y-99031428D02*
X153269905Y-99031428D01*
X154793714Y-99507619D02*
X154222286Y-99507619D01*
X154508000Y-99507619D02*
X154508000Y-98507619D01*
X154508000Y-98507619D02*
X154412762Y-98650476D01*
X154412762Y-98650476D02*
X154317524Y-98745714D01*
X154317524Y-98745714D02*
X154222286Y-98793333D01*
%TO.C,A0*%
X139371714Y-99709904D02*
X139847904Y-99709904D01*
X139276476Y-99995619D02*
X139609809Y-98995619D01*
X139609809Y-98995619D02*
X139943142Y-99995619D01*
X140466952Y-98995619D02*
X140562190Y-98995619D01*
X140562190Y-98995619D02*
X140657428Y-99043238D01*
X140657428Y-99043238D02*
X140705047Y-99090857D01*
X140705047Y-99090857D02*
X140752666Y-99186095D01*
X140752666Y-99186095D02*
X140800285Y-99376571D01*
X140800285Y-99376571D02*
X140800285Y-99614666D01*
X140800285Y-99614666D02*
X140752666Y-99805142D01*
X140752666Y-99805142D02*
X140705047Y-99900380D01*
X140705047Y-99900380D02*
X140657428Y-99948000D01*
X140657428Y-99948000D02*
X140562190Y-99995619D01*
X140562190Y-99995619D02*
X140466952Y-99995619D01*
X140466952Y-99995619D02*
X140371714Y-99948000D01*
X140371714Y-99948000D02*
X140324095Y-99900380D01*
X140324095Y-99900380D02*
X140276476Y-99805142D01*
X140276476Y-99805142D02*
X140228857Y-99614666D01*
X140228857Y-99614666D02*
X140228857Y-99376571D01*
X140228857Y-99376571D02*
X140276476Y-99186095D01*
X140276476Y-99186095D02*
X140324095Y-99090857D01*
X140324095Y-99090857D02*
X140371714Y-99043238D01*
X140371714Y-99043238D02*
X140466952Y-98995619D01*
%TO.C,RW*%
X159884095Y-97146619D02*
X159550762Y-96670428D01*
X159312667Y-97146619D02*
X159312667Y-96146619D01*
X159312667Y-96146619D02*
X159693619Y-96146619D01*
X159693619Y-96146619D02*
X159788857Y-96194238D01*
X159788857Y-96194238D02*
X159836476Y-96241857D01*
X159836476Y-96241857D02*
X159884095Y-96337095D01*
X159884095Y-96337095D02*
X159884095Y-96479952D01*
X159884095Y-96479952D02*
X159836476Y-96575190D01*
X159836476Y-96575190D02*
X159788857Y-96622809D01*
X159788857Y-96622809D02*
X159693619Y-96670428D01*
X159693619Y-96670428D02*
X159312667Y-96670428D01*
X160217429Y-96146619D02*
X160455524Y-97146619D01*
X160455524Y-97146619D02*
X160646000Y-96432333D01*
X160646000Y-96432333D02*
X160836476Y-97146619D01*
X160836476Y-97146619D02*
X161074572Y-96146619D01*
%TO.C,D2*%
X149199905Y-99307619D02*
X149199905Y-98307619D01*
X149199905Y-98307619D02*
X149438000Y-98307619D01*
X149438000Y-98307619D02*
X149580857Y-98355238D01*
X149580857Y-98355238D02*
X149676095Y-98450476D01*
X149676095Y-98450476D02*
X149723714Y-98545714D01*
X149723714Y-98545714D02*
X149771333Y-98736190D01*
X149771333Y-98736190D02*
X149771333Y-98879047D01*
X149771333Y-98879047D02*
X149723714Y-99069523D01*
X149723714Y-99069523D02*
X149676095Y-99164761D01*
X149676095Y-99164761D02*
X149580857Y-99260000D01*
X149580857Y-99260000D02*
X149438000Y-99307619D01*
X149438000Y-99307619D02*
X149199905Y-99307619D01*
X150152286Y-98402857D02*
X150199905Y-98355238D01*
X150199905Y-98355238D02*
X150295143Y-98307619D01*
X150295143Y-98307619D02*
X150533238Y-98307619D01*
X150533238Y-98307619D02*
X150628476Y-98355238D01*
X150628476Y-98355238D02*
X150676095Y-98402857D01*
X150676095Y-98402857D02*
X150723714Y-98498095D01*
X150723714Y-98498095D02*
X150723714Y-98593333D01*
X150723714Y-98593333D02*
X150676095Y-98736190D01*
X150676095Y-98736190D02*
X150104667Y-99307619D01*
X150104667Y-99307619D02*
X150723714Y-99307619D01*
%TO.C,D1*%
X148641905Y-94361619D02*
X148641905Y-93361619D01*
X148641905Y-93361619D02*
X148880000Y-93361619D01*
X148880000Y-93361619D02*
X149022857Y-93409238D01*
X149022857Y-93409238D02*
X149118095Y-93504476D01*
X149118095Y-93504476D02*
X149165714Y-93599714D01*
X149165714Y-93599714D02*
X149213333Y-93790190D01*
X149213333Y-93790190D02*
X149213333Y-93933047D01*
X149213333Y-93933047D02*
X149165714Y-94123523D01*
X149165714Y-94123523D02*
X149118095Y-94218761D01*
X149118095Y-94218761D02*
X149022857Y-94314000D01*
X149022857Y-94314000D02*
X148880000Y-94361619D01*
X148880000Y-94361619D02*
X148641905Y-94361619D01*
X150165714Y-94361619D02*
X149594286Y-94361619D01*
X149880000Y-94361619D02*
X149880000Y-93361619D01*
X149880000Y-93361619D02*
X149784762Y-93504476D01*
X149784762Y-93504476D02*
X149689524Y-93599714D01*
X149689524Y-93599714D02*
X149594286Y-93647333D01*
%TO.C,R2*%
X143047333Y-86708619D02*
X142714000Y-86232428D01*
X142475905Y-86708619D02*
X142475905Y-85708619D01*
X142475905Y-85708619D02*
X142856857Y-85708619D01*
X142856857Y-85708619D02*
X142952095Y-85756238D01*
X142952095Y-85756238D02*
X142999714Y-85803857D01*
X142999714Y-85803857D02*
X143047333Y-85899095D01*
X143047333Y-85899095D02*
X143047333Y-86041952D01*
X143047333Y-86041952D02*
X142999714Y-86137190D01*
X142999714Y-86137190D02*
X142952095Y-86184809D01*
X142952095Y-86184809D02*
X142856857Y-86232428D01*
X142856857Y-86232428D02*
X142475905Y-86232428D01*
X143428286Y-85803857D02*
X143475905Y-85756238D01*
X143475905Y-85756238D02*
X143571143Y-85708619D01*
X143571143Y-85708619D02*
X143809238Y-85708619D01*
X143809238Y-85708619D02*
X143904476Y-85756238D01*
X143904476Y-85756238D02*
X143952095Y-85803857D01*
X143952095Y-85803857D02*
X143999714Y-85899095D01*
X143999714Y-85899095D02*
X143999714Y-85994333D01*
X143999714Y-85994333D02*
X143952095Y-86137190D01*
X143952095Y-86137190D02*
X143380667Y-86708619D01*
X143380667Y-86708619D02*
X143999714Y-86708619D01*
%TO.C,C4*%
X150018333Y-86628380D02*
X149970714Y-86676000D01*
X149970714Y-86676000D02*
X149827857Y-86723619D01*
X149827857Y-86723619D02*
X149732619Y-86723619D01*
X149732619Y-86723619D02*
X149589762Y-86676000D01*
X149589762Y-86676000D02*
X149494524Y-86580761D01*
X149494524Y-86580761D02*
X149446905Y-86485523D01*
X149446905Y-86485523D02*
X149399286Y-86295047D01*
X149399286Y-86295047D02*
X149399286Y-86152190D01*
X149399286Y-86152190D02*
X149446905Y-85961714D01*
X149446905Y-85961714D02*
X149494524Y-85866476D01*
X149494524Y-85866476D02*
X149589762Y-85771238D01*
X149589762Y-85771238D02*
X149732619Y-85723619D01*
X149732619Y-85723619D02*
X149827857Y-85723619D01*
X149827857Y-85723619D02*
X149970714Y-85771238D01*
X149970714Y-85771238D02*
X150018333Y-85818857D01*
X150875476Y-86056952D02*
X150875476Y-86723619D01*
X150637381Y-85676000D02*
X150399286Y-86390285D01*
X150399286Y-86390285D02*
X151018333Y-86390285D01*
%TO.C,U1*%
X158852095Y-85551619D02*
X158852095Y-86361142D01*
X158852095Y-86361142D02*
X158899714Y-86456380D01*
X158899714Y-86456380D02*
X158947333Y-86504000D01*
X158947333Y-86504000D02*
X159042571Y-86551619D01*
X159042571Y-86551619D02*
X159233047Y-86551619D01*
X159233047Y-86551619D02*
X159328285Y-86504000D01*
X159328285Y-86504000D02*
X159375904Y-86456380D01*
X159375904Y-86456380D02*
X159423523Y-86361142D01*
X159423523Y-86361142D02*
X159423523Y-85551619D01*
X160423523Y-86551619D02*
X159852095Y-86551619D01*
X160137809Y-86551619D02*
X160137809Y-85551619D01*
X160137809Y-85551619D02*
X160042571Y-85694476D01*
X160042571Y-85694476D02*
X159947333Y-85789714D01*
X159947333Y-85789714D02*
X159852095Y-85837333D01*
%TO.C,C1*%
X153701333Y-90552380D02*
X153653714Y-90600000D01*
X153653714Y-90600000D02*
X153510857Y-90647619D01*
X153510857Y-90647619D02*
X153415619Y-90647619D01*
X153415619Y-90647619D02*
X153272762Y-90600000D01*
X153272762Y-90600000D02*
X153177524Y-90504761D01*
X153177524Y-90504761D02*
X153129905Y-90409523D01*
X153129905Y-90409523D02*
X153082286Y-90219047D01*
X153082286Y-90219047D02*
X153082286Y-90076190D01*
X153082286Y-90076190D02*
X153129905Y-89885714D01*
X153129905Y-89885714D02*
X153177524Y-89790476D01*
X153177524Y-89790476D02*
X153272762Y-89695238D01*
X153272762Y-89695238D02*
X153415619Y-89647619D01*
X153415619Y-89647619D02*
X153510857Y-89647619D01*
X153510857Y-89647619D02*
X153653714Y-89695238D01*
X153653714Y-89695238D02*
X153701333Y-89742857D01*
X154653714Y-90647619D02*
X154082286Y-90647619D01*
X154368000Y-90647619D02*
X154368000Y-89647619D01*
X154368000Y-89647619D02*
X154272762Y-89790476D01*
X154272762Y-89790476D02*
X154177524Y-89885714D01*
X154177524Y-89885714D02*
X154082286Y-89933333D01*
%TO.C,C2*%
X153222333Y-86606380D02*
X153174714Y-86654000D01*
X153174714Y-86654000D02*
X153031857Y-86701619D01*
X153031857Y-86701619D02*
X152936619Y-86701619D01*
X152936619Y-86701619D02*
X152793762Y-86654000D01*
X152793762Y-86654000D02*
X152698524Y-86558761D01*
X152698524Y-86558761D02*
X152650905Y-86463523D01*
X152650905Y-86463523D02*
X152603286Y-86273047D01*
X152603286Y-86273047D02*
X152603286Y-86130190D01*
X152603286Y-86130190D02*
X152650905Y-85939714D01*
X152650905Y-85939714D02*
X152698524Y-85844476D01*
X152698524Y-85844476D02*
X152793762Y-85749238D01*
X152793762Y-85749238D02*
X152936619Y-85701619D01*
X152936619Y-85701619D02*
X153031857Y-85701619D01*
X153031857Y-85701619D02*
X153174714Y-85749238D01*
X153174714Y-85749238D02*
X153222333Y-85796857D01*
X153603286Y-85796857D02*
X153650905Y-85749238D01*
X153650905Y-85749238D02*
X153746143Y-85701619D01*
X153746143Y-85701619D02*
X153984238Y-85701619D01*
X153984238Y-85701619D02*
X154079476Y-85749238D01*
X154079476Y-85749238D02*
X154127095Y-85796857D01*
X154127095Y-85796857D02*
X154174714Y-85892095D01*
X154174714Y-85892095D02*
X154174714Y-85987333D01*
X154174714Y-85987333D02*
X154127095Y-86130190D01*
X154127095Y-86130190D02*
X153555667Y-86701619D01*
X153555667Y-86701619D02*
X154174714Y-86701619D01*
%TO.C,RH*%
X162598714Y-95396619D02*
X162265381Y-94920428D01*
X162027286Y-95396619D02*
X162027286Y-94396619D01*
X162027286Y-94396619D02*
X162408238Y-94396619D01*
X162408238Y-94396619D02*
X162503476Y-94444238D01*
X162503476Y-94444238D02*
X162551095Y-94491857D01*
X162551095Y-94491857D02*
X162598714Y-94587095D01*
X162598714Y-94587095D02*
X162598714Y-94729952D01*
X162598714Y-94729952D02*
X162551095Y-94825190D01*
X162551095Y-94825190D02*
X162503476Y-94872809D01*
X162503476Y-94872809D02*
X162408238Y-94920428D01*
X162408238Y-94920428D02*
X162027286Y-94920428D01*
X163027286Y-95396619D02*
X163027286Y-94396619D01*
X163027286Y-94872809D02*
X163598714Y-94872809D01*
X163598714Y-95396619D02*
X163598714Y-94396619D01*
%TO.C,C3*%
X140170333Y-87682380D02*
X140122714Y-87730000D01*
X140122714Y-87730000D02*
X139979857Y-87777619D01*
X139979857Y-87777619D02*
X139884619Y-87777619D01*
X139884619Y-87777619D02*
X139741762Y-87730000D01*
X139741762Y-87730000D02*
X139646524Y-87634761D01*
X139646524Y-87634761D02*
X139598905Y-87539523D01*
X139598905Y-87539523D02*
X139551286Y-87349047D01*
X139551286Y-87349047D02*
X139551286Y-87206190D01*
X139551286Y-87206190D02*
X139598905Y-87015714D01*
X139598905Y-87015714D02*
X139646524Y-86920476D01*
X139646524Y-86920476D02*
X139741762Y-86825238D01*
X139741762Y-86825238D02*
X139884619Y-86777619D01*
X139884619Y-86777619D02*
X139979857Y-86777619D01*
X139979857Y-86777619D02*
X140122714Y-86825238D01*
X140122714Y-86825238D02*
X140170333Y-86872857D01*
X140503667Y-86777619D02*
X141122714Y-86777619D01*
X141122714Y-86777619D02*
X140789381Y-87158571D01*
X140789381Y-87158571D02*
X140932238Y-87158571D01*
X140932238Y-87158571D02*
X141027476Y-87206190D01*
X141027476Y-87206190D02*
X141075095Y-87253809D01*
X141075095Y-87253809D02*
X141122714Y-87349047D01*
X141122714Y-87349047D02*
X141122714Y-87587142D01*
X141122714Y-87587142D02*
X141075095Y-87682380D01*
X141075095Y-87682380D02*
X141027476Y-87730000D01*
X141027476Y-87730000D02*
X140932238Y-87777619D01*
X140932238Y-87777619D02*
X140646524Y-87777619D01*
X140646524Y-87777619D02*
X140551286Y-87730000D01*
X140551286Y-87730000D02*
X140503667Y-87682380D01*
%TO.C,R4*%
X146087333Y-97671619D02*
X145754000Y-97195428D01*
X145515905Y-97671619D02*
X145515905Y-96671619D01*
X145515905Y-96671619D02*
X145896857Y-96671619D01*
X145896857Y-96671619D02*
X145992095Y-96719238D01*
X145992095Y-96719238D02*
X146039714Y-96766857D01*
X146039714Y-96766857D02*
X146087333Y-96862095D01*
X146087333Y-96862095D02*
X146087333Y-97004952D01*
X146087333Y-97004952D02*
X146039714Y-97100190D01*
X146039714Y-97100190D02*
X145992095Y-97147809D01*
X145992095Y-97147809D02*
X145896857Y-97195428D01*
X145896857Y-97195428D02*
X145515905Y-97195428D01*
X146944476Y-97004952D02*
X146944476Y-97671619D01*
X146706381Y-96624000D02*
X146468286Y-97338285D01*
X146468286Y-97338285D02*
X147087333Y-97338285D01*
%TO.C,U2*%
X144554095Y-92717619D02*
X144554095Y-93527142D01*
X144554095Y-93527142D02*
X144601714Y-93622380D01*
X144601714Y-93622380D02*
X144649333Y-93670000D01*
X144649333Y-93670000D02*
X144744571Y-93717619D01*
X144744571Y-93717619D02*
X144935047Y-93717619D01*
X144935047Y-93717619D02*
X145030285Y-93670000D01*
X145030285Y-93670000D02*
X145077904Y-93622380D01*
X145077904Y-93622380D02*
X145125523Y-93527142D01*
X145125523Y-93527142D02*
X145125523Y-92717619D01*
X145554095Y-92812857D02*
X145601714Y-92765238D01*
X145601714Y-92765238D02*
X145696952Y-92717619D01*
X145696952Y-92717619D02*
X145935047Y-92717619D01*
X145935047Y-92717619D02*
X146030285Y-92765238D01*
X146030285Y-92765238D02*
X146077904Y-92812857D01*
X146077904Y-92812857D02*
X146125523Y-92908095D01*
X146125523Y-92908095D02*
X146125523Y-93003333D01*
X146125523Y-93003333D02*
X146077904Y-93146190D01*
X146077904Y-93146190D02*
X145506476Y-93717619D01*
X145506476Y-93717619D02*
X146125523Y-93717619D01*
D11*
%TO.C,R5*%
X143388936Y-94060000D02*
X143843064Y-94060000D01*
X143388936Y-95530000D02*
X143843064Y-95530000D01*
%TO.C,J1*%
X134682000Y-86627000D02*
X136012000Y-86627000D01*
X134682000Y-87957000D02*
X134682000Y-86627000D01*
X134682000Y-89227000D02*
X134682000Y-99447000D01*
X134682000Y-89227000D02*
X137342000Y-89227000D01*
X134682000Y-99447000D02*
X137342000Y-99447000D01*
X137342000Y-89227000D02*
X137342000Y-99447000D01*
%TO.C,A1*%
X138680000Y-93475000D02*
X141480000Y-93475000D01*
X138680000Y-95475000D02*
X138680000Y-93475000D01*
X141480000Y-93475000D02*
X141480000Y-95475000D01*
X141480000Y-95475000D02*
X138680000Y-95475000D01*
%TO.C,R3*%
X146542936Y-87065000D02*
X146997064Y-87065000D01*
X146542936Y-88535000D02*
X146997064Y-88535000D01*
%TO.C,RL*%
X158552000Y-96791000D02*
G75*
G03*
X158552000Y-96791000I-1200000J0D01*
G01*
%TO.C,R1*%
X154744000Y-96404936D02*
X154744000Y-96859064D01*
X153274000Y-96404936D02*
X153274000Y-96859064D01*
%TO.C,A0*%
X138686000Y-96523000D02*
X141486000Y-96523000D01*
X138686000Y-98523000D02*
X138686000Y-96523000D01*
X141486000Y-96523000D02*
X141486000Y-98523000D01*
X141486000Y-98523000D02*
X138686000Y-98523000D01*
%TO.C,RW*%
X161346000Y-94237000D02*
G75*
G03*
X161346000Y-94237000I-1200000J0D01*
G01*
%TO.C,D2*%
X152227000Y-98007000D02*
X152227000Y-96007000D01*
X152227000Y-98007000D02*
X148217000Y-98007000D01*
X152227000Y-96007000D02*
X148217000Y-96007000D01*
%TO.C,D1*%
X152442000Y-90851000D02*
X150442000Y-90851000D01*
X152442000Y-90851000D02*
X152442000Y-94861000D01*
X150442000Y-90851000D02*
X150442000Y-94861000D01*
%TO.C,R2*%
X143441064Y-88506000D02*
X142986936Y-88506000D01*
X143441064Y-87036000D02*
X142986936Y-87036000D01*
%TO.C,C4*%
X149479000Y-88808252D02*
X149479000Y-88285748D01*
X150949000Y-88808252D02*
X150949000Y-88285748D01*
%TO.C,U1*%
X163093000Y-92354000D02*
X157632000Y-92354000D01*
X161696000Y-87020000D02*
X157632000Y-87020000D01*
%TO.C,C1*%
X153162000Y-92859252D02*
X153162000Y-92336748D01*
X154632000Y-92859252D02*
X154632000Y-92336748D01*
%TO.C,C2*%
X153650252Y-88596000D02*
X153127748Y-88596000D01*
X153650252Y-87126000D02*
X153127748Y-87126000D01*
%TO.C,RH*%
X164013000Y-96932000D02*
G75*
G03*
X164013000Y-96932000I-1200000J0D01*
G01*
%TO.C,C3*%
X141043000Y-89466748D02*
X141043000Y-89989252D01*
X139573000Y-89466748D02*
X139573000Y-89989252D01*
%TO.C,R4*%
X143359936Y-96473000D02*
X143814064Y-96473000D01*
X143359936Y-97943000D02*
X143814064Y-97943000D01*
D10*
%TO.C,U2*%
X143641000Y-89100000D02*
X143641000Y-89325000D01*
X143641000Y-89100000D02*
X146991000Y-89100000D01*
X143641000Y-89325000D02*
X142416000Y-89325000D01*
X143641000Y-92450000D02*
X143641000Y-92150000D01*
X143641000Y-92450000D02*
X146991000Y-92450000D01*
X146991000Y-89100000D02*
X146991000Y-89400000D01*
X146991000Y-92450000D02*
X146991000Y-92150000D01*
%TD*%
%LPC*%
D12*
%TO.C,R5*%
X142703500Y-94795000D03*
X144528500Y-94795000D03*
%TD*%
D13*
%TO.C,J1*%
X136012000Y-87957000D03*
D14*
X136012000Y-90497000D03*
X136012000Y-93037000D03*
X136012000Y-95577000D03*
X136012000Y-98117000D03*
%TD*%
D15*
%TO.C,A1*%
X139355000Y-94475000D03*
D16*
X140805000Y-94475000D03*
%TD*%
D12*
%TO.C,R3*%
X145857500Y-87800000D03*
X147682500Y-87800000D03*
%TD*%
D17*
%TO.C,RL*%
X157352000Y-96791000D03*
%TD*%
D18*
%TO.C,R1*%
X154009000Y-95719500D03*
X154009000Y-97544500D03*
%TD*%
D15*
%TO.C,A0*%
X139361000Y-97523000D03*
D16*
X140811000Y-97523000D03*
%TD*%
D17*
%TO.C,RW*%
X160146000Y-94237000D03*
%TD*%
D19*
%TO.C,D2*%
X151517000Y-97007000D03*
X148217000Y-97007000D03*
%TD*%
D20*
%TO.C,D1*%
X151442000Y-91561000D03*
X151442000Y-94861000D03*
%TD*%
D21*
%TO.C,R2*%
X144126500Y-87771000D03*
X142301500Y-87771000D03*
%TD*%
D22*
%TO.C,C4*%
X150214000Y-89497000D03*
X150214000Y-87597000D03*
%TD*%
D23*
%TO.C,U1*%
X162364000Y-91592000D03*
X162364000Y-90322000D03*
X162364000Y-89052000D03*
X162364000Y-87782000D03*
X156964000Y-87782000D03*
X156964000Y-89052000D03*
X156964000Y-90322000D03*
X156964000Y-91592000D03*
%TD*%
D22*
%TO.C,C1*%
X153897000Y-93548000D03*
X153897000Y-91648000D03*
%TD*%
D24*
%TO.C,C2*%
X154339000Y-87861000D03*
X152439000Y-87861000D03*
%TD*%
D17*
%TO.C,RH*%
X162813000Y-96932000D03*
%TD*%
D25*
%TO.C,C3*%
X140308000Y-88778000D03*
X140308000Y-90678000D03*
%TD*%
D12*
%TO.C,R4*%
X142674500Y-97208000D03*
X144499500Y-97208000D03*
%TD*%
D26*
%TO.C,U2*%
X143116000Y-89775000D03*
X143116000Y-90275000D03*
X143116000Y-90775000D03*
X143116000Y-91275000D03*
X143116000Y-91775000D03*
X147516000Y-91775000D03*
X147516000Y-91275000D03*
X147516000Y-90775000D03*
X147516000Y-90275000D03*
X147516000Y-89775000D03*
%TD*%
%LPD*%
M02*
