%TF.GenerationSoftware,KiCad,Pcbnew,7.0.2*%
%TF.CreationDate,2023-07-05T23:29:04-07:00*%
%TF.ProjectId,555-timer-pwm-with-digipot,3535352d-7469-46d6-9572-2d70776d2d77,rev?*%
%TF.SameCoordinates,Original*%
%TF.FileFunction,Paste,Top*%
%TF.FilePolarity,Positive*%
%FSLAX46Y46*%
G04 Gerber Fmt 4.6, Leading zero omitted, Abs format (unit mm)*
G04 Created by KiCad (PCBNEW 7.0.2) date 2023-07-05 23:29:04*
%MOMM*%
%LPD*%
G01*
G04 APERTURE LIST*
G04 Aperture macros list*
%AMRoundRect*
0 Rectangle with rounded corners*
0 $1 Rounding radius*
0 $2 $3 $4 $5 $6 $7 $8 $9 X,Y pos of 4 corners*
0 Add a 4 corners polygon primitive as box body*
4,1,4,$2,$3,$4,$5,$6,$7,$8,$9,$2,$3,0*
0 Add four circle primitives for the rounded corners*
1,1,$1+$1,$2,$3*
1,1,$1+$1,$4,$5*
1,1,$1+$1,$6,$7*
1,1,$1+$1,$8,$9*
0 Add four rect primitives between the rounded corners*
20,1,$1+$1,$2,$3,$4,$5,0*
20,1,$1+$1,$4,$5,$6,$7,0*
20,1,$1+$1,$6,$7,$8,$9,0*
20,1,$1+$1,$8,$9,$2,$3,0*%
G04 Aperture macros list end*
%ADD10RoundRect,0.250000X-0.262500X-0.450000X0.262500X-0.450000X0.262500X0.450000X-0.262500X0.450000X0*%
%ADD11RoundRect,0.250000X-0.450000X0.262500X-0.450000X-0.262500X0.450000X-0.262500X0.450000X0.262500X0*%
%ADD12RoundRect,0.225000X0.225000X0.375000X-0.225000X0.375000X-0.225000X-0.375000X0.225000X-0.375000X0*%
%ADD13RoundRect,0.225000X-0.375000X0.225000X-0.375000X-0.225000X0.375000X-0.225000X0.375000X0.225000X0*%
%ADD14RoundRect,0.250000X0.262500X0.450000X-0.262500X0.450000X-0.262500X-0.450000X0.262500X-0.450000X0*%
%ADD15RoundRect,0.250000X0.475000X-0.250000X0.475000X0.250000X-0.475000X0.250000X-0.475000X-0.250000X0*%
%ADD16RoundRect,0.150000X0.625000X0.150000X-0.625000X0.150000X-0.625000X-0.150000X0.625000X-0.150000X0*%
%ADD17RoundRect,0.250000X0.250000X0.475000X-0.250000X0.475000X-0.250000X-0.475000X0.250000X-0.475000X0*%
%ADD18RoundRect,0.250000X-0.475000X0.250000X-0.475000X-0.250000X0.475000X-0.250000X0.475000X0.250000X0*%
%ADD19R,1.400000X0.300000*%
G04 APERTURE END LIST*
D10*
%TO.C,R5*%
X142703500Y-94795000D03*
X144528500Y-94795000D03*
%TD*%
%TO.C,R3*%
X145857500Y-87800000D03*
X147682500Y-87800000D03*
%TD*%
D11*
%TO.C,R1*%
X154009000Y-95719500D03*
X154009000Y-97544500D03*
%TD*%
D12*
%TO.C,D2*%
X151517000Y-97007000D03*
X148217000Y-97007000D03*
%TD*%
D13*
%TO.C,D1*%
X151442000Y-91561000D03*
X151442000Y-94861000D03*
%TD*%
D14*
%TO.C,R2*%
X144126500Y-87771000D03*
X142301500Y-87771000D03*
%TD*%
D15*
%TO.C,C4*%
X150214000Y-89497000D03*
X150214000Y-87597000D03*
%TD*%
D16*
%TO.C,U1*%
X162364000Y-91592000D03*
X162364000Y-90322000D03*
X162364000Y-89052000D03*
X162364000Y-87782000D03*
X156964000Y-87782000D03*
X156964000Y-89052000D03*
X156964000Y-90322000D03*
X156964000Y-91592000D03*
%TD*%
D15*
%TO.C,C1*%
X153897000Y-93548000D03*
X153897000Y-91648000D03*
%TD*%
D17*
%TO.C,C2*%
X154339000Y-87861000D03*
X152439000Y-87861000D03*
%TD*%
D18*
%TO.C,C3*%
X140308000Y-88778000D03*
X140308000Y-90678000D03*
%TD*%
D10*
%TO.C,R4*%
X142674500Y-97208000D03*
X144499500Y-97208000D03*
%TD*%
D19*
%TO.C,U2*%
X143116000Y-89775000D03*
X143116000Y-90275000D03*
X143116000Y-90775000D03*
X143116000Y-91275000D03*
X143116000Y-91775000D03*
X147516000Y-91775000D03*
X147516000Y-91275000D03*
X147516000Y-90775000D03*
X147516000Y-90275000D03*
X147516000Y-89775000D03*
%TD*%
M02*
