%TF.GenerationSoftware,KiCad,Pcbnew,7.0.2*%
%TF.CreationDate,2023-07-05T23:36:48-07:00*%
%TF.ProjectId,ap5726-lcd-backlight-driver,61703537-3236-42d6-9c63-642d6261636b,rev?*%
%TF.SameCoordinates,Original*%
%TF.FileFunction,Copper,L2,Bot*%
%TF.FilePolarity,Positive*%
%FSLAX46Y46*%
G04 Gerber Fmt 4.6, Leading zero omitted, Abs format (unit mm)*
G04 Created by KiCad (PCBNEW 7.0.2) date 2023-07-05 23:36:48*
%MOMM*%
%LPD*%
G01*
G04 APERTURE LIST*
%TA.AperFunction,ComponentPad*%
%ADD10R,1.700000X1.700000*%
%TD*%
%TA.AperFunction,ComponentPad*%
%ADD11O,1.700000X1.700000*%
%TD*%
%TA.AperFunction,ComponentPad*%
%ADD12C,2.000000*%
%TD*%
%TA.AperFunction,ViaPad*%
%ADD13C,0.800000*%
%TD*%
G04 APERTURE END LIST*
D10*
%TO.P,J1,1,Pin_1*%
%TO.N,VCC*%
X154098000Y-87169000D03*
D11*
%TO.P,J1,2,Pin_2*%
%TO.N,GND*%
X154098000Y-89709000D03*
%TO.P,J1,3,Pin_3*%
%TO.N,/ENABLE*%
X154098000Y-92249000D03*
%TO.P,J1,4,Pin_4*%
%TO.N,/LED_A*%
X154098000Y-94789000D03*
%TO.P,J1,5,Pin_5*%
%TO.N,/LED_K*%
X154098000Y-97329000D03*
%TD*%
D12*
%TO.P,FB,1,1*%
%TO.N,Net-(JP1-B)*%
X162004000Y-97014000D03*
%TD*%
D13*
%TO.N,GND*%
X162687000Y-93218000D03*
X162814000Y-94361000D03*
X166014000Y-97028000D03*
X159131000Y-91821000D03*
%TD*%
%TA.AperFunction,Conductor*%
%TO.N,GND*%
G36*
X166120853Y-84963881D02*
G01*
X166173001Y-84967986D01*
X166313583Y-84980286D01*
X166331705Y-84983238D01*
X166410476Y-85002149D01*
X166413477Y-85002910D01*
X166518793Y-85031130D01*
X166534150Y-85036343D01*
X166562451Y-85048065D01*
X166614496Y-85069622D01*
X166619376Y-85071770D01*
X166712788Y-85115329D01*
X166725135Y-85121963D01*
X166801163Y-85168553D01*
X166807477Y-85172694D01*
X166890166Y-85230594D01*
X166899551Y-85237860D01*
X166967975Y-85296299D01*
X166975124Y-85302908D01*
X167046090Y-85373874D01*
X167052699Y-85381023D01*
X167111135Y-85449442D01*
X167118414Y-85458844D01*
X167176299Y-85541513D01*
X167180451Y-85547845D01*
X167227028Y-85623852D01*
X167233680Y-85636231D01*
X167277208Y-85729577D01*
X167279388Y-85734531D01*
X167312655Y-85814848D01*
X167317868Y-85830205D01*
X167346067Y-85935442D01*
X167346866Y-85938589D01*
X167365760Y-86017290D01*
X167368714Y-86035429D01*
X167381020Y-86176082D01*
X167385119Y-86228166D01*
X167385500Y-86237871D01*
X167385500Y-98293123D01*
X167385118Y-98302853D01*
X167381020Y-98354916D01*
X167368714Y-98495571D01*
X167365760Y-98513705D01*
X167346866Y-98592408D01*
X167346067Y-98595556D01*
X167317868Y-98700793D01*
X167312655Y-98716150D01*
X167279388Y-98796467D01*
X167277208Y-98801421D01*
X167233680Y-98894767D01*
X167227025Y-98907153D01*
X167180451Y-98983153D01*
X167176299Y-98989485D01*
X167118414Y-99072154D01*
X167111129Y-99081563D01*
X167052699Y-99149975D01*
X167046090Y-99157124D01*
X166975124Y-99228090D01*
X166967975Y-99234699D01*
X166899563Y-99293129D01*
X166890154Y-99300414D01*
X166807485Y-99358299D01*
X166801153Y-99362451D01*
X166725153Y-99409025D01*
X166712767Y-99415680D01*
X166619421Y-99459208D01*
X166614467Y-99461388D01*
X166534150Y-99494655D01*
X166518793Y-99499868D01*
X166413556Y-99528067D01*
X166410409Y-99528866D01*
X166331708Y-99547760D01*
X166313569Y-99550714D01*
X166172917Y-99563020D01*
X166149706Y-99564847D01*
X166120833Y-99567119D01*
X166111129Y-99567500D01*
X150372877Y-99567500D01*
X150363147Y-99567118D01*
X150311083Y-99563020D01*
X150170427Y-99550714D01*
X150152293Y-99547760D01*
X150073590Y-99528866D01*
X150070442Y-99528067D01*
X149965205Y-99499868D01*
X149949848Y-99494655D01*
X149869531Y-99461388D01*
X149864577Y-99459208D01*
X149771224Y-99415676D01*
X149758852Y-99409028D01*
X149711554Y-99380044D01*
X149682845Y-99362451D01*
X149676513Y-99358299D01*
X149641624Y-99333869D01*
X149593839Y-99300410D01*
X149584442Y-99293135D01*
X149516023Y-99234699D01*
X149508874Y-99228090D01*
X149437908Y-99157124D01*
X149431299Y-99149975D01*
X149410545Y-99125675D01*
X149372860Y-99081551D01*
X149365594Y-99072166D01*
X149307694Y-98989477D01*
X149303547Y-98983153D01*
X149256963Y-98907135D01*
X149250329Y-98894788D01*
X149206770Y-98801376D01*
X149204622Y-98796496D01*
X149171343Y-98716150D01*
X149166130Y-98700793D01*
X149156288Y-98664063D01*
X149137910Y-98595476D01*
X149137153Y-98592494D01*
X149118236Y-98513698D01*
X149115285Y-98495579D01*
X149102979Y-98354916D01*
X149098880Y-98302833D01*
X149098500Y-98293131D01*
X149098500Y-97329000D01*
X152742340Y-97329000D01*
X152762936Y-97564407D01*
X152807469Y-97730604D01*
X152824097Y-97792663D01*
X152923965Y-98006830D01*
X153059505Y-98200401D01*
X153226599Y-98367495D01*
X153420170Y-98503035D01*
X153634337Y-98602903D01*
X153862592Y-98664063D01*
X154098000Y-98684659D01*
X154333408Y-98664063D01*
X154561663Y-98602903D01*
X154775830Y-98503035D01*
X154969401Y-98367495D01*
X155136495Y-98200401D01*
X155272035Y-98006830D01*
X155371903Y-97792663D01*
X155433063Y-97564408D01*
X155453659Y-97329000D01*
X155433063Y-97093592D01*
X155411736Y-97013999D01*
X160498356Y-97013999D01*
X160518891Y-97261816D01*
X160518891Y-97261819D01*
X160518892Y-97261821D01*
X160579937Y-97502881D01*
X160624960Y-97605523D01*
X160679825Y-97730604D01*
X160679827Y-97730607D01*
X160815836Y-97938785D01*
X160984256Y-98121738D01*
X160984259Y-98121740D01*
X161180485Y-98274470D01*
X161180487Y-98274471D01*
X161180491Y-98274474D01*
X161399190Y-98392828D01*
X161634386Y-98473571D01*
X161879665Y-98514500D01*
X162128335Y-98514500D01*
X162373614Y-98473571D01*
X162608810Y-98392828D01*
X162827509Y-98274474D01*
X163023744Y-98121738D01*
X163192164Y-97938785D01*
X163328173Y-97730607D01*
X163428063Y-97502881D01*
X163489108Y-97261821D01*
X163509643Y-97014000D01*
X163489108Y-96766179D01*
X163428063Y-96525119D01*
X163328173Y-96297393D01*
X163192164Y-96089215D01*
X163023744Y-95906262D01*
X163001612Y-95889036D01*
X162827514Y-95753529D01*
X162827510Y-95753526D01*
X162827509Y-95753526D01*
X162608810Y-95635172D01*
X162608806Y-95635170D01*
X162608805Y-95635170D01*
X162373615Y-95554429D01*
X162128335Y-95513500D01*
X161879665Y-95513500D01*
X161634384Y-95554429D01*
X161399194Y-95635170D01*
X161180485Y-95753529D01*
X160984259Y-95906259D01*
X160984256Y-95906261D01*
X160984256Y-95906262D01*
X160886916Y-96012002D01*
X160815837Y-96089214D01*
X160679825Y-96297395D01*
X160609554Y-96457598D01*
X160579937Y-96525119D01*
X160548016Y-96651171D01*
X160518891Y-96766183D01*
X160498356Y-97013999D01*
X155411736Y-97013999D01*
X155371903Y-96865337D01*
X155272035Y-96651171D01*
X155136495Y-96457599D01*
X154969401Y-96290505D01*
X154783839Y-96160573D01*
X154740216Y-96105998D01*
X154733022Y-96036500D01*
X154764545Y-95974145D01*
X154783837Y-95957428D01*
X154969401Y-95827495D01*
X155136495Y-95660401D01*
X155272035Y-95466830D01*
X155371903Y-95252663D01*
X155433063Y-95024408D01*
X155453659Y-94789000D01*
X155433063Y-94553592D01*
X155371903Y-94325337D01*
X155272035Y-94111171D01*
X155136495Y-93917599D01*
X154969401Y-93750505D01*
X154783839Y-93620573D01*
X154740216Y-93565998D01*
X154733022Y-93496500D01*
X154764545Y-93434145D01*
X154783837Y-93417428D01*
X154969401Y-93287495D01*
X155136495Y-93120401D01*
X155272035Y-92926830D01*
X155371903Y-92712663D01*
X155433063Y-92484408D01*
X155453659Y-92249000D01*
X155433063Y-92013592D01*
X155371903Y-91785337D01*
X155272035Y-91571171D01*
X155136495Y-91377599D01*
X154969401Y-91210505D01*
X154783402Y-91080267D01*
X154739780Y-91025692D01*
X154732587Y-90956193D01*
X154764109Y-90893839D01*
X154783405Y-90877119D01*
X154969078Y-90747109D01*
X155136106Y-90580081D01*
X155271600Y-90386576D01*
X155371430Y-90172492D01*
X155428636Y-89959000D01*
X154531686Y-89959000D01*
X154557493Y-89918844D01*
X154598000Y-89780889D01*
X154598000Y-89637111D01*
X154557493Y-89499156D01*
X154531686Y-89459000D01*
X155428636Y-89459000D01*
X155428635Y-89458999D01*
X155371430Y-89245507D01*
X155271599Y-89031421D01*
X155136109Y-88837921D01*
X155014053Y-88715865D01*
X154980568Y-88654542D01*
X154985552Y-88584850D01*
X155027424Y-88528917D01*
X155058397Y-88512004D01*
X155190331Y-88462796D01*
X155305546Y-88376546D01*
X155391796Y-88261331D01*
X155442091Y-88126483D01*
X155448500Y-88066873D01*
X155448499Y-86271128D01*
X155442091Y-86211517D01*
X155391796Y-86076669D01*
X155305546Y-85961454D01*
X155190331Y-85875204D01*
X155055483Y-85824909D01*
X154995873Y-85818500D01*
X154992550Y-85818500D01*
X153203439Y-85818500D01*
X153203420Y-85818500D01*
X153200128Y-85818501D01*
X153196848Y-85818853D01*
X153196840Y-85818854D01*
X153140515Y-85824909D01*
X153005669Y-85875204D01*
X152890454Y-85961454D01*
X152804204Y-86076668D01*
X152753909Y-86211516D01*
X152751076Y-86237871D01*
X152747500Y-86271127D01*
X152747500Y-86274448D01*
X152747500Y-86274449D01*
X152747500Y-88063560D01*
X152747500Y-88063578D01*
X152747501Y-88066872D01*
X152753909Y-88126483D01*
X152804204Y-88261331D01*
X152890454Y-88376546D01*
X153005669Y-88462796D01*
X153137598Y-88512002D01*
X153193532Y-88553873D01*
X153217949Y-88619337D01*
X153203097Y-88687610D01*
X153181947Y-88715865D01*
X153059888Y-88837924D01*
X152924400Y-89031421D01*
X152824569Y-89245507D01*
X152767364Y-89458999D01*
X152767364Y-89459000D01*
X153664314Y-89459000D01*
X153638507Y-89499156D01*
X153598000Y-89637111D01*
X153598000Y-89780889D01*
X153638507Y-89918844D01*
X153664314Y-89959000D01*
X152767364Y-89959000D01*
X152824569Y-90172492D01*
X152924399Y-90386576D01*
X153059893Y-90580081D01*
X153226918Y-90747106D01*
X153412595Y-90877119D01*
X153456219Y-90931696D01*
X153463412Y-91001195D01*
X153431890Y-91063549D01*
X153412595Y-91080269D01*
X153226595Y-91210508D01*
X153059505Y-91377598D01*
X152923965Y-91571170D01*
X152824097Y-91785336D01*
X152762936Y-92013592D01*
X152742340Y-92249000D01*
X152762936Y-92484407D01*
X152807709Y-92651502D01*
X152824097Y-92712663D01*
X152923965Y-92926830D01*
X153059505Y-93120401D01*
X153226599Y-93287495D01*
X153412160Y-93417426D01*
X153455783Y-93472002D01*
X153462976Y-93541501D01*
X153431454Y-93603855D01*
X153412159Y-93620575D01*
X153226595Y-93750508D01*
X153059505Y-93917598D01*
X152923965Y-94111170D01*
X152824097Y-94325336D01*
X152762936Y-94553592D01*
X152742340Y-94788999D01*
X152762936Y-95024407D01*
X152807709Y-95191502D01*
X152824097Y-95252663D01*
X152923965Y-95466830D01*
X153059505Y-95660401D01*
X153226599Y-95827495D01*
X153412160Y-95957426D01*
X153455783Y-96012002D01*
X153462976Y-96081501D01*
X153431454Y-96143855D01*
X153412159Y-96160575D01*
X153226595Y-96290508D01*
X153059505Y-96457598D01*
X152923965Y-96651170D01*
X152824097Y-96865336D01*
X152762936Y-97093592D01*
X152742340Y-97329000D01*
X149098500Y-97329000D01*
X149098500Y-86237871D01*
X149098882Y-86228144D01*
X149102986Y-86175999D01*
X149115286Y-86035412D01*
X149118238Y-86017293D01*
X149118239Y-86017290D01*
X149137158Y-85938486D01*
X149137901Y-85935558D01*
X149166133Y-85830196D01*
X149171343Y-85814848D01*
X149204637Y-85734469D01*
X149206754Y-85729656D01*
X149250336Y-85636196D01*
X149256954Y-85623878D01*
X149303572Y-85547806D01*
X149307673Y-85541552D01*
X149365608Y-85458812D01*
X149372843Y-85449468D01*
X149431323Y-85380996D01*
X149437883Y-85373900D01*
X149508900Y-85302883D01*
X149515996Y-85296323D01*
X149584468Y-85237843D01*
X149593812Y-85230608D01*
X149676552Y-85172673D01*
X149682806Y-85168572D01*
X149758878Y-85121954D01*
X149771196Y-85115336D01*
X149864656Y-85071754D01*
X149869469Y-85069637D01*
X149949853Y-85036341D01*
X149965196Y-85031133D01*
X150070559Y-85002901D01*
X150073469Y-85002162D01*
X150152305Y-84983235D01*
X150170416Y-84980286D01*
X150311078Y-84967979D01*
X150363167Y-84963880D01*
X150372868Y-84963500D01*
X166111126Y-84963500D01*
X166120853Y-84963881D01*
G37*
%TD.AperFunction*%
%TD*%
M02*
