%TF.GenerationSoftware,KiCad,Pcbnew,7.0.2*%
%TF.CreationDate,2023-07-05T23:36:48-07:00*%
%TF.ProjectId,ap5726-lcd-backlight-driver,61703537-3236-42d6-9c63-642d6261636b,rev?*%
%TF.SameCoordinates,Original*%
%TF.FileFunction,Copper,L1,Top*%
%TF.FilePolarity,Positive*%
%FSLAX46Y46*%
G04 Gerber Fmt 4.6, Leading zero omitted, Abs format (unit mm)*
G04 Created by KiCad (PCBNEW 7.0.2) date 2023-07-05 23:36:48*
%MOMM*%
%LPD*%
G01*
G04 APERTURE LIST*
G04 Aperture macros list*
%AMRoundRect*
0 Rectangle with rounded corners*
0 $1 Rounding radius*
0 $2 $3 $4 $5 $6 $7 $8 $9 X,Y pos of 4 corners*
0 Add a 4 corners polygon primitive as box body*
4,1,4,$2,$3,$4,$5,$6,$7,$8,$9,$2,$3,0*
0 Add four circle primitives for the rounded corners*
1,1,$1+$1,$2,$3*
1,1,$1+$1,$4,$5*
1,1,$1+$1,$6,$7*
1,1,$1+$1,$8,$9*
0 Add four rect primitives between the rounded corners*
20,1,$1+$1,$2,$3,$4,$5,0*
20,1,$1+$1,$4,$5,$6,$7,0*
20,1,$1+$1,$6,$7,$8,$9,0*
20,1,$1+$1,$8,$9,$2,$3,0*%
%AMOutline4P*
0 Free polygon, 4 corners , with rotation*
0 The origin of the aperture is its center*
0 number of corners: always 4*
0 $1 to $8 corner X, Y*
0 $9 Rotation angle, in degrees counterclockwise*
0 create outline with 4 corners*
4,1,4,$1,$2,$3,$4,$5,$6,$7,$8,$1,$2,$9*%
G04 Aperture macros list end*
%TA.AperFunction,SMDPad,CuDef*%
%ADD10RoundRect,0.250000X-0.450000X0.262500X-0.450000X-0.262500X0.450000X-0.262500X0.450000X0.262500X0*%
%TD*%
%TA.AperFunction,ComponentPad*%
%ADD11R,1.700000X1.700000*%
%TD*%
%TA.AperFunction,ComponentPad*%
%ADD12O,1.700000X1.700000*%
%TD*%
%TA.AperFunction,ComponentPad*%
%ADD13C,2.000000*%
%TD*%
%TA.AperFunction,SMDPad,CuDef*%
%ADD14RoundRect,0.225000X0.375000X-0.225000X0.375000X0.225000X-0.375000X0.225000X-0.375000X-0.225000X0*%
%TD*%
%TA.AperFunction,SMDPad,CuDef*%
%ADD15R,0.800000X0.550000*%
%TD*%
%TA.AperFunction,SMDPad,CuDef*%
%ADD16O,0.800000X0.550000*%
%TD*%
%TA.AperFunction,SMDPad,CuDef*%
%ADD17RoundRect,0.250000X-0.475000X0.250000X-0.475000X-0.250000X0.475000X-0.250000X0.475000X0.250000X0*%
%TD*%
%TA.AperFunction,SMDPad,CuDef*%
%ADD18R,1.500000X1.000000*%
%TD*%
%TA.AperFunction,SMDPad,CuDef*%
%ADD19Outline4P,-0.725000X-1.950000X0.725000X-1.350000X0.725000X1.350000X-0.725000X1.950000X180.000000*%
%TD*%
%TA.AperFunction,SMDPad,CuDef*%
%ADD20Outline4P,-0.725000X-1.350000X0.725000X-1.950000X0.725000X1.950000X-0.725000X1.350000X180.000000*%
%TD*%
%TA.AperFunction,ViaPad*%
%ADD21C,0.800000*%
%TD*%
%TA.AperFunction,Conductor*%
%ADD22C,0.250000*%
%TD*%
%TA.AperFunction,Conductor*%
%ADD23C,0.750000*%
%TD*%
G04 APERTURE END LIST*
%TA.AperFunction,EtchedComponent*%
%TO.C,VDC*%
G36*
X157551000Y-96175000D02*
G01*
X156951000Y-96175000D01*
X156951000Y-95675000D01*
X157551000Y-95675000D01*
X157551000Y-96175000D01*
G37*
%TD.AperFunction*%
%TD*%
D10*
%TO.P,R1,1*%
%TO.N,GND*%
X159660000Y-93077500D03*
%TO.P,R1,2*%
%TO.N,/LED_K*%
X159660000Y-94902500D03*
%TD*%
D11*
%TO.P,J1,1,Pin_1*%
%TO.N,VCC*%
X154098000Y-87169000D03*
D12*
%TO.P,J1,2,Pin_2*%
%TO.N,GND*%
X154098000Y-89709000D03*
%TO.P,J1,3,Pin_3*%
%TO.N,/ENABLE*%
X154098000Y-92249000D03*
%TO.P,J1,4,Pin_4*%
%TO.N,/LED_A*%
X154098000Y-94789000D03*
%TO.P,J1,5,Pin_5*%
%TO.N,/LED_K*%
X154098000Y-97329000D03*
%TD*%
D13*
%TO.P,FB,1,1*%
%TO.N,Net-(JP1-B)*%
X162004000Y-97014000D03*
%TD*%
D14*
%TO.P,D1,1,K*%
%TO.N,/LED_A*%
X159631000Y-90246000D03*
%TO.P,D1,2,A*%
%TO.N,Net-(D1-A)*%
X159631000Y-86946000D03*
%TD*%
D15*
%TO.P,U1,1,SW*%
%TO.N,Net-(D1-A)*%
X161590201Y-92167198D03*
D16*
%TO.P,U1,2,GND*%
%TO.N,GND*%
X161590201Y-93117199D03*
%TO.P,U1,3,FB*%
%TO.N,Net-(JP1-B)*%
X161590201Y-94067200D03*
%TO.P,U1,4,EN*%
%TO.N,/ENABLE*%
X163990201Y-94067200D03*
%TO.P,U1,5,OVP*%
%TO.N,/LED_A*%
X163990201Y-93117199D03*
%TO.P,U1,6,Vin*%
%TO.N,VCC*%
X163990201Y-92167198D03*
%TD*%
D17*
%TO.P,C1,1*%
%TO.N,/LED_A*%
X157378000Y-90225000D03*
%TO.P,C1,2*%
%TO.N,GND*%
X157378000Y-92125000D03*
%TD*%
%TO.P,C2,1*%
%TO.N,VCC*%
X166014000Y-92219000D03*
%TO.P,C2,2*%
%TO.N,GND*%
X166014000Y-94119000D03*
%TD*%
D18*
%TO.P,VDC,1,A*%
%TO.N,/LED_K*%
X157251000Y-95275000D03*
%TO.P,VDC,2,B*%
%TO.N,Net-(JP1-B)*%
X157251000Y-96575000D03*
%TD*%
D19*
%TO.P,L1,1,1*%
%TO.N,Net-(D1-A)*%
X161942000Y-88658000D03*
D20*
%TO.P,L1,2,2*%
%TO.N,VCC*%
X164892000Y-88658000D03*
%TD*%
D21*
%TO.N,GND*%
X162687000Y-93218000D03*
X162814000Y-94361000D03*
X166014000Y-97028000D03*
X159131000Y-91821000D03*
%TD*%
D22*
%TO.N,/LED_A*%
X157378000Y-90225000D02*
X159610000Y-90225000D01*
X153543000Y-91059000D02*
X152473000Y-92129000D01*
X152473000Y-98002097D02*
X153530903Y-99060000D01*
X163322000Y-99060000D02*
X164846000Y-97536000D01*
X153530903Y-99060000D02*
X163322000Y-99060000D01*
X152473000Y-93164000D02*
X152473000Y-92129000D01*
X164013728Y-93117199D02*
X163990201Y-93117199D01*
X156210000Y-90170000D02*
X155321000Y-91059000D01*
X152473000Y-92129000D02*
X152473000Y-98002097D01*
X157323000Y-90170000D02*
X156210000Y-90170000D01*
X154098000Y-94789000D02*
X152473000Y-93164000D01*
X155321000Y-91059000D02*
X153543000Y-91059000D01*
X164846000Y-93949471D02*
X164013728Y-93117199D01*
X157378000Y-90225000D02*
X157323000Y-90170000D01*
X159610000Y-90225000D02*
X159631000Y-90246000D01*
X164846000Y-97536000D02*
X164846000Y-93949471D01*
%TO.N,GND*%
X166014000Y-94119000D02*
X166014000Y-97028000D01*
D23*
%TO.N,VCC*%
X154098000Y-87169000D02*
X155655000Y-87169000D01*
X164892000Y-86279000D02*
X164892000Y-88658000D01*
X164211000Y-85598000D02*
X164892000Y-86279000D01*
X157226000Y-85598000D02*
X164211000Y-85598000D01*
X155655000Y-87169000D02*
X157226000Y-85598000D01*
D22*
%TO.N,/ENABLE*%
X163193604Y-98552000D02*
X153659299Y-98552000D01*
X152923000Y-97815701D02*
X152923000Y-96504999D01*
X164396000Y-97349604D02*
X163193604Y-98552000D01*
X153463999Y-95964000D02*
X154734000Y-95964000D01*
X155273000Y-93424000D02*
X154098000Y-92249000D01*
X154734000Y-95964000D02*
X155273000Y-95425000D01*
X152923000Y-96504999D02*
X153463999Y-95964000D01*
X163990201Y-94067200D02*
X164396000Y-94472999D01*
X164396000Y-94472999D02*
X164396000Y-97349604D01*
X155273000Y-95425000D02*
X155273000Y-93424000D01*
X153659299Y-98552000D02*
X152923000Y-97815701D01*
%TO.N,/LED_K*%
X156152000Y-95275000D02*
X154098000Y-97329000D01*
X158344000Y-95275000D02*
X156152000Y-95275000D01*
X158716500Y-94902500D02*
X158344000Y-95275000D01*
X159660000Y-94902500D02*
X158716500Y-94902500D01*
%TO.N,Net-(JP1-B)*%
X161036000Y-95123000D02*
X161036000Y-96046000D01*
X161036000Y-96046000D02*
X162004000Y-97014000D01*
X161036000Y-95123000D02*
X161036000Y-94621401D01*
X157251000Y-96194000D02*
X159965000Y-96194000D01*
X159965000Y-96194000D02*
X161036000Y-95123000D01*
X161036000Y-94621401D02*
X161590201Y-94067200D01*
%TD*%
%TA.AperFunction,Conductor*%
%TO.N,Net-(D1-A)*%
G36*
X162759539Y-86506685D02*
G01*
X162805294Y-86559489D01*
X162816500Y-86611000D01*
X162816500Y-90681000D01*
X162796815Y-90748039D01*
X162744011Y-90793794D01*
X162692500Y-90805000D01*
X162306000Y-90805000D01*
X162306000Y-92061074D01*
X162286315Y-92128113D01*
X162241426Y-92169907D01*
X162180722Y-92203053D01*
X162078984Y-92304786D01*
X162063377Y-92325634D01*
X162007442Y-92367503D01*
X161937750Y-92372484D01*
X161923158Y-92368360D01*
X161888857Y-92356357D01*
X161762219Y-92342089D01*
X161762209Y-92342088D01*
X161758753Y-92341699D01*
X161421649Y-92341699D01*
X161418193Y-92342088D01*
X161418182Y-92342089D01*
X161298383Y-92355587D01*
X161229561Y-92343532D01*
X161178182Y-92296183D01*
X161160500Y-92232367D01*
X161160500Y-91313323D01*
X161160500Y-91310000D01*
X161148947Y-91202544D01*
X161137741Y-91151033D01*
X161136690Y-91147875D01*
X161103614Y-91048496D01*
X161025823Y-90927454D01*
X160980069Y-90874650D01*
X160951796Y-90850151D01*
X160914022Y-90791373D01*
X160909000Y-90756440D01*
X160909000Y-87630000D01*
X158874000Y-87630000D01*
X158806961Y-87610315D01*
X158761206Y-87557511D01*
X158750000Y-87506000D01*
X158750000Y-86611000D01*
X158769685Y-86543961D01*
X158822489Y-86498206D01*
X158874000Y-86487000D01*
X162692500Y-86487000D01*
X162759539Y-86506685D01*
G37*
%TD.AperFunction*%
%TD*%
%TA.AperFunction,Conductor*%
%TO.N,VCC*%
G36*
X166948039Y-86379685D02*
G01*
X166993794Y-86432489D01*
X167005000Y-86484000D01*
X167005000Y-92967000D01*
X166985315Y-93034039D01*
X166932511Y-93079794D01*
X166881000Y-93091000D01*
X165003469Y-93091000D01*
X164936430Y-93071315D01*
X164890675Y-93018511D01*
X164880249Y-92980882D01*
X164876042Y-92943542D01*
X164852959Y-92877575D01*
X164846000Y-92836620D01*
X164846000Y-92456000D01*
X164556251Y-92456000D01*
X164490279Y-92436994D01*
X164453804Y-92414075D01*
X164288857Y-92356357D01*
X164162219Y-92342089D01*
X164162209Y-92342088D01*
X164158753Y-92341699D01*
X163821649Y-92341699D01*
X163818193Y-92342088D01*
X163818182Y-92342089D01*
X163691544Y-92356357D01*
X163526595Y-92414076D01*
X163511970Y-92423266D01*
X163444733Y-92442265D01*
X163377899Y-92421896D01*
X163332685Y-92368628D01*
X163322000Y-92318271D01*
X163322000Y-86484000D01*
X163341685Y-86416961D01*
X163394489Y-86371206D01*
X163446000Y-86360000D01*
X166881000Y-86360000D01*
X166948039Y-86379685D01*
G37*
%TD.AperFunction*%
%TD*%
%TA.AperFunction,Conductor*%
%TO.N,GND*%
G36*
X156681684Y-91192294D02*
G01*
X156750202Y-91214999D01*
X156849858Y-91225180D01*
X156849859Y-91225180D01*
X156852991Y-91225500D01*
X157903008Y-91225499D01*
X158005797Y-91214999D01*
X158074316Y-91192293D01*
X158113320Y-91186000D01*
X159098561Y-91186000D01*
X159111156Y-91186641D01*
X159207655Y-91196500D01*
X160054344Y-91196499D01*
X160111855Y-91190624D01*
X160150845Y-91186642D01*
X160163445Y-91186000D01*
X160531000Y-91186000D01*
X160598039Y-91205685D01*
X160643794Y-91258489D01*
X160655000Y-91310000D01*
X160655000Y-92583000D01*
X160668534Y-92596534D01*
X160689481Y-92602685D01*
X160735236Y-92655489D01*
X160738620Y-92663656D01*
X160746405Y-92684529D01*
X160832655Y-92799744D01*
X160947870Y-92885994D01*
X161082718Y-92936289D01*
X161142328Y-92942698D01*
X162038073Y-92942697D01*
X162097684Y-92936289D01*
X162232532Y-92885994D01*
X162347747Y-92799744D01*
X162433997Y-92684529D01*
X162441778Y-92663664D01*
X162483650Y-92607732D01*
X162549115Y-92583316D01*
X162557960Y-92583000D01*
X162807922Y-92583000D01*
X162874961Y-92602685D01*
X162912914Y-92641026D01*
X162922002Y-92655489D01*
X162947297Y-92695746D01*
X162992512Y-92749015D01*
X163067501Y-92815347D01*
X163104673Y-92874508D01*
X163104111Y-92929454D01*
X163105924Y-92929659D01*
X163084793Y-93117199D01*
X163104359Y-93290856D01*
X163162077Y-93455802D01*
X163206328Y-93526227D01*
X163225328Y-93593464D01*
X163206328Y-93658170D01*
X163162078Y-93728593D01*
X163104359Y-93893542D01*
X163084793Y-94067200D01*
X163104359Y-94240857D01*
X163162078Y-94405806D01*
X163255053Y-94553776D01*
X163358596Y-94657319D01*
X163392081Y-94718642D01*
X163387097Y-94788334D01*
X163345225Y-94844267D01*
X163279761Y-94868684D01*
X163270915Y-94869000D01*
X162309487Y-94869000D01*
X162242448Y-94849315D01*
X162196693Y-94796511D01*
X162186749Y-94727353D01*
X162215774Y-94663797D01*
X162221806Y-94657319D01*
X162325348Y-94553776D01*
X162418323Y-94405806D01*
X162476042Y-94240857D01*
X162495608Y-94067200D01*
X162476042Y-93893542D01*
X162418323Y-93728593D01*
X162325348Y-93580623D01*
X162201777Y-93457052D01*
X162053807Y-93364077D01*
X161888857Y-93306358D01*
X161762219Y-93292090D01*
X161762209Y-93292089D01*
X161758753Y-93291700D01*
X161421649Y-93291700D01*
X161418193Y-93292089D01*
X161418182Y-93292090D01*
X161291544Y-93306358D01*
X161126594Y-93364077D01*
X160978627Y-93457050D01*
X160925812Y-93509865D01*
X160872995Y-93562682D01*
X160811675Y-93596166D01*
X160785316Y-93599000D01*
X156461000Y-93599000D01*
X156393961Y-93579315D01*
X156348206Y-93526511D01*
X156337000Y-93475000D01*
X156337000Y-91310000D01*
X156356685Y-91242961D01*
X156409489Y-91197206D01*
X156461000Y-91186000D01*
X156642680Y-91186000D01*
X156681684Y-91192294D01*
G37*
%TD.AperFunction*%
%TD*%
M02*
