<?xml version="1.0" encoding="UTF-8" standalone="no"?>
<svg
   viewBox="0 0 88.684996 88.685062"
   width="88.684998"
   height="88.685059"
   version="1.1"
   id="svg22"
   xmlns="http://www.w3.org/2000/svg"
   xmlns:svg="http://www.w3.org/2000/svg">
  <desc
     id="desc2">as01808ao-footprint-outline-silk.dxf - scale = 1.000000, origin = (0.000000, 0.000000), method = manual</desc>
  <defs
     id="defs16" />
  <g
     id="g20"
     transform="translate(-636.03609,-892.38028)">
    <path
       id="path18"
       style="fill:none;stroke:#000000"
       d="m 714.77226,953.00807 v -4.90794 c 2.3e-4,-1.11203 0.69583,-2.10522 1.7408,-2.48556 l 1.98826,-0.72367 c 7.62633,-2.77577 7.62633,-13.56156 0,-16.33733 l -1.98826,-0.72366 c -1.04516,-0.38041 -1.7408,-1.37388 -1.7408,-2.48612 l -2e-5,-4.25578" />
    <path
       id="path3657"
       style="fill:none;stroke:#000000"
       d="m 714.77226,898.1277 v -0.33398 c 0,-2.71358 -2.1998,-4.91338 -4.91338,-4.91338 h -58.96063 c -2.71359,0 -4.91339,2.19979 -4.91339,4.91338 v 27.55007 c 0,1.11223 -0.69564,2.1057 -1.74079,2.48611 l -1.98826,0.72367 c -7.62633,2.77577 -7.62633,13.56156 0,16.33733 l 1.98826,0.72367 c 1.04496,0.38034 1.74056,1.37353 1.74079,2.48556 v 27.55186 c 0,2.71359 2.1998,4.91339 4.91339,4.91339 h 58.96063 c 2.60509,0 4.73656,-2.02739 4.90293,-4.59026" />
  </g>
</svg>
